<?xml version="1.0" encoding="utf-8"?>
<!-- Generator: Adobe Illustrator 22.0.1, SVG Export Plug-In . SVG Version: 6.00 Build 0)  -->
<svg version="1.1" id="Capa_1" xmlns="http://www.w3.org/2000/svg" xmlns:xlink="http://www.w3.org/1999/xlink" x="0px" y="0px"
	 viewBox="0 0 16 15" style="enable-background:new 0 0 16 15;" xml:space="preserve">
<style type="text/css">
	.st0{fill:#FF4F03;}
	.st1{fill:none;}
</style>
<g id="Mobile">
	<g id="reset-password" transform="translate(-272.000000, -142.000000)">
		<g id="Group-3" transform="translate(200.000000, 111.000000)">
			
				<g id="Back" transform="translate(80.000000, 38.384615) rotate(-180.000000) translate(-80.000000, -38.384615) translate(72.000000, 30.384615)">
				<g>
					
						<g id="Shape" transform="translate(7.950769, 8.000000) scale(-1, 1) translate(-7.950769, -8.000000) translate(1.181538, 1.538462)">
						<path class="st0" d="M6.7-0.5c-0.1,0-0.2,0-0.3,0.1l-6.7,6.1C-0.4,5.9-0.5,6-0.5,6.1c0,0.1,0.1,0.3,0.2,0.4L6.4,13
							c0.2,0.2,0.5,0.2,0.7,0c0.2-0.2,0.2-0.5,0-0.7L0.7,6.2l6.3-5.8c0.2-0.2,0.2-0.5,0-0.7C7-0.4,6.9-0.5,6.7-0.5z"/>
						<path class="st0" d="M13.4,5.7H0c-0.3,0-0.5,0.2-0.5,0.5S-0.3,6.7,0,6.7h13.4c0.3,0,0.5-0.2,0.5-0.5S13.7,5.7,13.4,5.7z"/>
					</g>
					<rect id="Bounds" y="0" class="st1" width="16" height="15.4"/>
				</g>
			</g>
		</g>
	</g>
</g>
</svg>
