<?xml version="1.0" encoding="UTF-8"?>
<svg width="19px" height="24px" viewBox="0 0 19 24" version="1.1" xmlns="http://www.w3.org/2000/svg" xmlns:xlink="http://www.w3.org/1999/xlink">
    <!-- Generator: Sketch 47.1 (45422) - http://www.bohemiancoding.com/sketch -->
    <title>Shape</title>
    <desc>Created with Sketch.</desc>
    <defs></defs>
    <g id="Mobile" stroke="none" stroke-width="1" fill="none" fill-rule="evenodd">
        <g id="home-menu" transform="translate(-22.000000, -276.000000)" fill="#CDD9E2">
            <path d="M38.7833333,283.388889 C38.5722222,282.755556 37.9388889,282.333333 37.3055556,282.333333 L35.7222222,282.333333 L25.1666667,282.333333 L25.1666667,280.222222 L22,283.388889 L24.1111111,285.5 L25.1666667,286.555556 L25.1666667,284.444444 L37.5166667,284.444444 L38.8888889,288.666667 L22,288.666667 L22,298.166667 C22,298.8 22.4222222,299.222222 23.0555556,299.222222 L24.1111111,299.222222 C24.7444444,299.222222 25.1666667,298.8 25.1666667,298.166667 L25.1666667,297.111111 L37.8333333,297.111111 L37.8333333,298.166667 C37.8333333,298.8 38.2555556,299.222222 38.8888889,299.222222 L39.9444444,299.222222 C40.5777778,299.222222 41,298.8 41,298.166667 L41,289.722222 L38.7833333,283.388889 L38.7833333,283.388889 Z M25.6944444,293.944444 C24.85,293.944444 24.1111111,293.205556 24.1111111,292.361111 C24.1111111,291.516667 24.85,290.777778 25.6944444,290.777778 C26.5388889,290.777778 27.2777778,291.516667 27.2777778,292.361111 C27.2777778,293.205556 26.5388889,293.944444 25.6944444,293.944444 L25.6944444,293.944444 Z M37.3055556,293.944444 C36.4611111,293.944444 35.7222222,293.205556 35.7222222,292.361111 C35.7222222,291.516667 36.4611111,290.777778 37.3055556,290.777778 C38.15,290.777778 38.8888889,291.516667 38.8888889,292.361111 C38.8888889,293.205556 38.15,293.944444 37.3055556,293.944444 L37.3055556,293.944444 Z M35.7222222,276 L35.7222222,278.111111 L27.2777778,278.111111 L27.2777778,280.222222 L35.7222222,280.222222 L35.7222222,282.333333 L38.8888889,279.166667 L35.7222222,276 L35.7222222,276 Z" id="Shape"></path>
        </g>
    </g>
</svg>