<?xml version="1.0" encoding="UTF-8"?>
<svg width="11px" height="9px" viewBox="0 0 11 9" version="1.1" xmlns="http://www.w3.org/2000/svg" xmlns:xlink="http://www.w3.org/1999/xlink">
    <!-- Generator: Sketch 47.1 (45422) - http://www.bohemiancoding.com/sketch -->
    <title>Shape</title>
    <desc>Created with Sketch.</desc>
    <defs></defs>
    <g id="Symbols" stroke="none" stroke-width="1" fill="none" fill-rule="evenodd">
        <g id="pay" transform="translate(-13.000000, -10.000000)" fill="#FFFFFF">
            <g id="Group-2">
                <path d="M22.9,10 L14.1,10 C13.495,10 13,10.50625 13,11.125 L13,17.875 C13,18.49375 13.495,19 14.1,19 L22.9,19 C23.505,19 24,18.49375 24,17.875 L24,11.125 C24,10.50625 23.505,10 22.9,10 L22.9,10 Z M23,18 L14,18 L14,15 L23,15 L23,18 L23,18 Z M23,12 L14,12 L14,11 L23,11 L23,12 L23,12 Z" id="Shape"></path>
            </g>
        </g>
    </g>
</svg>