<?xml version="1.0" encoding="utf-8"?>
<!-- Generator: Adobe Illustrator 22.0.1, SVG Export Plug-In . SVG Version: 6.00 Build 0)  -->
<svg version="1.1" id="Capa_1" xmlns="http://www.w3.org/2000/svg" xmlns:xlink="http://www.w3.org/1999/xlink" x="0px" y="0px"
	 viewBox="0 0 20 20" style="enable-background:new 0 0 20 20;" xml:space="preserve">
<style type="text/css">
	.st0{filter:url(#Adobe_OpacityMaskFilter);}
	.st1{fill:#FFFFFF;}
	.st2{mask:url(#mask-2_2_);}
	.st3{fill:#003D69;fill-opacity:0.1975;}
</style>
<g id="Mobile">
	<g id="home-menu" transform="translate(-20.000000, -634.000000)">
		<defs>
			<filter id="Adobe_OpacityMaskFilter" filterUnits="userSpaceOnUse" x="20" y="634" width="20" height="20">
				<feColorMatrix  type="matrix" values="1 0 0 0 0  0 1 0 0 0  0 0 1 0 0  0 0 0 1 0"/>
			</filter>
		</defs>
		<mask maskUnits="userSpaceOnUse" x="20" y="634" width="20" height="20" id="mask-2_2_">
			<g class="st0">
				<rect id="path-1_3_" y="79.4" class="st1" width="360" height="666.4"/>
			</g>
		</mask>
		<g id="contact" class="st2">
			<g transform="translate(20.000000, 634.000000)">
				<path class="st3" d="M18,0H2C0.9,0,0,0.9,0,2v18l4-4h14c1.1,0,2-0.9,2-2V2C20,0.9,19.1,0,18,0L18,0z M16,12H4v-2h12V12L16,12z
					 M16,9H4V7h12V9L16,9z M16,6H4V4h12V6L16,6z"/>
			</g>
		</g>
	</g>
</g>
</svg>
