<?xml version="1.0" encoding="utf-8"?>
<!-- Generator: Adobe Illustrator 22.0.1, SVG Export Plug-In . SVG Version: 6.00 Build 0)  -->
<svg version="1.1" id="Capa_1" xmlns="http://www.w3.org/2000/svg" xmlns:xlink="http://www.w3.org/1999/xlink" x="0px" y="0px"
	 viewBox="0 0 19 22" style="enable-background:new 0 0 19 22;" xml:space="preserve">
<style type="text/css">
	.st0{fill:#003D69;fill-opacity:0.1975;}
</style>
<g id="Mobile">
	<g id="home-menu" transform="translate(-21.000000, -468.000000)">
		<path id="docs" class="st0" d="M35,468H23c-1.1,0-2,0.9-2,2v14h2v-14h12V468L35,468z M38,472H27c-1.1,0-2,0.9-2,2v14
			c0,1.1,0.9,2,2,2h11c1.1,0,2-0.9,2-2v-14C40,472.9,39.1,472,38,472L38,472z M38,488H27v-14h11V488L38,488z"/>
	</g>
</g>
</svg>
