<?xml version="1.0" encoding="iso-8859-1"?>
<!-- Generator: Adobe Illustrator 19.1.0, SVG Export Plug-In . SVG Version: 6.00 Build 0)  -->
<svg xmlns="http://www.w3.org/2000/svg" xmlns:xlink="http://www.w3.org/1999/xlink" version="1.1" id="Capa_1" x="0px" y="0px" viewBox="0 0 317.452 317.452" style="enable-background:new 0 0 317.452 317.452;" xml:space="preserve" width="512px" height="512px">
<g>
	<g id="Float_2_">
		<g>
			<path d="M158.726,0C71.064,0,0,71.064,0,158.726s71.064,158.726,158.726,158.726s158.726-71.064,158.726-158.726     S246.388,0,158.726,0z M226.751,158.726c0,37.573-30.453,68.025-68.025,68.025s-68.025-30.453-68.025-68.025     s30.453-68.025,68.025-68.025S226.751,121.153,226.751,158.726z M158.726,22.675c29.364,0,56.212,9.728,78.433,25.555     l-32.743,32.743c-13.424-8.05-28.888-12.948-45.69-12.948s-32.267,4.898-45.69,12.948L80.293,48.23     C102.514,32.403,129.362,22.675,158.726,22.675z M22.675,158.726c0-29.364,9.728-56.212,25.555-78.433l32.72,32.72     c-8.027,13.446-12.925,28.911-12.925,45.713s4.898,32.267,12.948,45.69l-32.72,32.72     C32.403,214.938,22.675,188.09,22.675,158.726z M158.726,294.777c-29.364,0-56.212-9.728-78.433-25.555l32.72-32.72     c13.446,8.027,28.911,12.925,45.713,12.925s32.267-4.898,45.69-12.925l32.72,32.72     C214.938,285.049,188.09,294.777,158.726,294.777z M269.222,237.159l-32.72-32.743c8.027-13.424,12.925-28.888,12.925-45.69     s-4.898-32.267-12.925-45.69l32.72-32.72c15.827,22.199,25.555,49.046,25.555,78.411S285.049,214.938,269.222,237.159z" fill="#ff4f03"/>
		</g>
	</g>
</g>
<g>
</g>
<g>
</g>
<g>
</g>
<g>
</g>
<g>
</g>
<g>
</g>
<g>
</g>
<g>
</g>
<g>
</g>
<g>
</g>
<g>
</g>
<g>
</g>
<g>
</g>
<g>
</g>
<g>
</g>
</svg>
