<?xml version="1.0" encoding="utf-8"?>
<!-- Generator: Adobe Illustrator 22.0.1, SVG Export Plug-In . SVG Version: 6.00 Build 0)  -->
<svg version="1.1" id="Capa_1" xmlns="http://www.w3.org/2000/svg" xmlns:xlink="http://www.w3.org/1999/xlink" x="0px" y="0px"
	 viewBox="0 0 16 21" style="enable-background:new 0 0 16 21;" xml:space="preserve">
<style type="text/css">
	.st0{opacity:0.5;}
	.st1{fill:#FF4F03;}
</style>
<g id="desktop" class="st0">
	<g id="HOME" transform="translate(-580.000000, -355.000000)">
		<g id="Password_1_" transform="translate(558.000000, 342.000000)">
			<g id="Group_1_" transform="translate(20.000000, 13.500000)">
				<g id="Password">
					<g id="Group" transform="translate(2.000000, 0.000000)">
						<path class="st1" d="M8,20c-4.4,0-8-3.6-8-8s3.6-8,8-8s8,3.6,8,8S12.4,20,8,20z M8,5c-3.9,0-7,3.1-7,7c0,3.9,3.1,7,7,7
							c3.9,0,7-3.1,7-7C15,8.1,11.9,5,8,5z"/>
						<path class="st1" d="M8,14c-1.1,0-2-0.9-2-2s0.9-2,2-2c1.1,0,2,0.9,2,2S9.1,14,8,14z M8,11c-0.6,0-1,0.4-1,1s0.4,1,1,1
							s1-0.4,1-1S8.6,11,8,11z"/>
						<path class="st1" d="M12.5,5.2h-1V3.9C11.5,2,9.9,0.5,8,0.5S4.5,2,4.5,3.9v1.3h-1V3.9c0-2.4,2-4.4,4.5-4.4s4.5,2,4.5,4.4V5.2z
							"/>
					</g>
				</g>
			</g>
		</g>
	</g>
</g>
</svg>
