<?xml version="1.0" encoding="utf-8"?>
<!-- Generator: Adobe Illustrator 22.0.1, SVG Export Plug-In . SVG Version: 6.00 Build 0)  -->
<svg version="1.1" id="Capa_1" xmlns="http://www.w3.org/2000/svg" xmlns:xlink="http://www.w3.org/1999/xlink" x="0px" y="0px"
	 viewBox="0 0 16 19" style="enable-background:new 0 0 16 19;" xml:space="preserve">
<style type="text/css">
	.st0{fill:#003D69;fill-opacity:0.1975;}
</style>
<g id="Mobile">
	<g id="home-menu" transform="translate(-22.000000, -370.000000)">
		<path id="renewal" class="st0" d="M25,377.5l-1.4-1.4c-0.9,1.2-1.5,2.5-1.6,3.9h2C24.1,379.1,24.5,378.3,25,377.5L25,377.5z
			 M24,382h-2c0.2,1.4,0.7,2.7,1.6,3.9l1.4-1.4C24.5,383.7,24.1,382.9,24,382L24,382z M25,387.3c1.2,0.9,2.5,1.4,3.9,1.6v-2
			c-0.9-0.1-1.7-0.5-2.5-1L25,387.3L25,387.3z M30.9,373.1V370l-4.5,4.5l4.5,4.5v-3.9c2.8,0.5,5,2.9,5,5.9s-2.2,5.4-5,5.9v2
			c3.9-0.5,7-3.9,7-7.9S34.8,373.6,30.9,373.1L30.9,373.1z"/>
	</g>
</g>
</svg>
