<?xml version="1.0" encoding="utf-8"?>
<!-- Generator: Adobe Illustrator 22.0.1, SVG Export Plug-In . SVG Version: 6.00 Build 0)  -->
<svg version="1.1" id="Capa_1" xmlns="http://www.w3.org/2000/svg" xmlns:xlink="http://www.w3.org/1999/xlink" x="0px" y="0px"
	 viewBox="0 0 70 70" style="enable-background:new 0 0 70 70;" xml:space="preserve">
<style type="text/css">
	.st0{fill:#FF4F03;}
	.st1{fill:#FFBEA1;}
</style>
<g id="Mobile">
	<g id="reset-password-copy" transform="translate(-145.000000, -233.000000)">
		<g id="tick-inside-circle" transform="translate(145.000000, 233.000000)">
			<polygon id="Shape" class="st0" points="20.4,28 15.5,32.8 31.1,48.4 65.6,13.8 60.8,9 31.1,38.7 			"/>
			<path id="Path" class="st1" d="M62.2,34.5c0,15.2-12.4,27.6-27.6,27.6S6.9,49.7,6.9,34.5S19.3,6.9,34.5,6.9c2.8,0,5.2,0.3,7.6,1
				l5.5-5.5C43.5,1,39,0,34.5,0C15.5,0,0,15.5,0,34.5s15.5,34.5,34.5,34.5s34.5-15.5,34.5-34.5H62.2z"/>
		</g>
	</g>
</g>
</svg>
