<?xml version="1.0" encoding="iso-8859-1"?>
<!-- Generator: Adobe Illustrator 18.0.0, SVG Export Plug-In . SVG Version: 6.00 Build 0)  -->
<!DOCTYPE svg PUBLIC "-//W3C//DTD SVG 1.1//EN" "http://www.w3.org/Graphics/SVG/1.1/DTD/svg11.dtd">
<svg xmlns="http://www.w3.org/2000/svg" xmlns:xlink="http://www.w3.org/1999/xlink" version="1.1" id="Capa_1" x="0px" y="0px" viewBox="0 0 375.65 375.65" style="enable-background:new 0 0 375.65 375.65;" xml:space="preserve" width="512px" height="512px">
<g>
	<path d="M194.351,269.677c-1.733-0.607-3.589-0.953-5.53-0.953h-19.58v-22.448h40.139c8.4-7.609,18.854-12.316,29.777-15.556   c-2.852-4.102-5.327-8.538-7.391-13.231H28.786V76.537h233.265v35.611c8.633-3.388,18.456-5.24,28.785-5.24h0.001V72.566   c0-13.705-11.109-24.815-24.815-24.815H24.815C11.109,47.751,0,58.861,0,72.566v148.893c0,13.705,11.109,24.816,24.815,24.816   h96.781v22.448h-19.581c-9.256,0-16.758,7.503-16.758,16.759c0,9.256,7.502,16.76,16.758,16.76h86.805   c0.285,0,0.563-0.028,0.844-0.042C190.154,289.772,191.222,279.143,194.351,269.677z" fill="#ff4f03"/>
	<g>
		<path d="M375.576,315.93c-0.471-24.605-0.783-40.858-8.455-52.924c-8.802-13.843-25.481-19.321-49.574-23.673    c-0.008-0.001-0.018-0.003-0.025-0.005c-0.275-0.054-2.522-0.485-6.674-0.906c-1.466-0.072-2.227-3.047-0.396-3.952    c17.852-9.235,29.756-30.933,29.756-54.477c0-19.483-2.715-32.335-8.803-41.668c-7.546-11.566-24.229-17.56-40.568-17.56    c-16.338,0-33.021,5.993-40.566,17.56c-6.09,9.333-8.805,22.185-8.805,41.668c0,23.544,11.906,45.241,29.758,54.477    c1.828,0.905,1.068,3.88-0.396,3.952c-4.154,0.421-6.398,0.852-6.674,0.906c-0.009,0.002-0.018,0.004-0.025,0.005    c-24.094,4.352-40.774,9.83-49.574,23.673c-7.672,12.065-7.984,28.319-8.456,52.924l-0.071,3.693    c-0.043,2.18,0.792,4.284,2.318,5.843c1.527,1.557,3.615,2.434,5.795,2.434h153.395c2.182,0,4.27-0.877,5.795-2.434    c1.527-1.559,2.363-3.663,2.32-5.843L375.576,315.93z" fill="#ff4f03"/>
	</g>
	<g>
		<path d="M182.443,120.273c1.365-1.364,3.576-1.364,4.941,0l4.096,4.096l2.457-2.456c2.371-2.374,2.371-6.222,0-8.596l-8.604-8.604    l-5.184-5.181c-2.373-2.375-6.221-2.375-8.596,0l-5.182,5.181l-14.465,14.465l-24.125,24.124l-3.711-3.711    c-5.621-5.621-14.734-5.621-20.358,0l-15.266,15.268c-5.621,5.621-5.623,14.734,0,20.355l18.32,18.32    c5.621,5.622,14.736,5.622,20.354,0.002l15.269-15.268c5.619-5.621,5.619-14.733,0-20.357l-3.435-3.434l19.827-19.828l6.91,6.908    c2.373,2.375,6.223,2.374,8.596,0l3.008-3.008l-7.252-7.25c-1.363-1.366-1.363-3.578,0-4.942c1.363-1.365,3.578-1.366,4.943,0    l7.252,7.251l4.297-4.297l-4.096-4.096C181.078,123.851,181.078,121.638,182.443,120.273z M120.183,179.408l-2.285,2.286    c-1.402,1.404-3.677,1.404-5.08,0l-12.527-12.528c-1.405-1.403-1.405-3.678-0.002-5.081l2.286-2.285    c1.402-1.402,3.677-1.402,5.079,0l12.529,12.529C121.588,175.731,121.588,178.006,120.183,179.408z" fill="#ff4f03"/>
	</g>
</g>
<g>
</g>
<g>
</g>
<g>
</g>
<g>
</g>
<g>
</g>
<g>
</g>
<g>
</g>
<g>
</g>
<g>
</g>
<g>
</g>
<g>
</g>
<g>
</g>
<g>
</g>
<g>
</g>
<g>
</g>
</svg>
