<?xml version="1.0" encoding="UTF-8"?>
<svg width="66px" height="49px" viewBox="0 0 66 49" version="1.1" xmlns="http://www.w3.org/2000/svg" xmlns:xlink="http://www.w3.org/1999/xlink">
    <!-- Generator: Sketch 47.1 (45422) - http://www.bohemiancoding.com/sketch -->
    <title>logo</title>
    <desc>Created with Sketch.</desc>
    <defs>
        <polygon id="path-1" points="9.54109134 6.64486795 0.399074758 6.64486795 0.399074758 0.36187758 9.54109134 0.36187758"></polygon>
    </defs>
    <g id="Symbols" stroke="none" stroke-width="1" fill="none" fill-rule="evenodd">
        <g id="header-mobile" transform="translate(-28.000000, -30.000000)">
            <g id="Group-3">
                <g id="logo" transform="translate(28.000000, 30.000000)">
                    <g id="Page-1" transform="translate(0.000000, 0.438596)">
                        <g id="Group-3" transform="translate(0.000000, 41.381746)">
                            <mask id="mask-2" fill="white">
                                <use xlink:href="#path-1"></use>
                            </mask>
                            <g id="Clip-2"></g>
                            <path d="M2.00192262,3.30611252 C1.59193635,3.33269199 1.20149346,3.35387251 0.811900283,3.38543563 C0.678070566,3.39664884 0.615616698,3.35013477 0.58035363,3.22180576 C0.442700207,2.7172111 0.344983271,2.20846339 0.432078801,1.68351883 C0.51705005,1.16729565 0.816573702,0.803073822 1.29071327,0.61120326 C1.57536696,0.496163984 1.88678658,0.412272526 2.19140851,0.391507314 C2.62093817,0.362020712 3.0653378,0.349976889 3.48552063,0.427223479 C4.19375599,0.557629012 4.72567601,1.20716485 4.76986106,1.94391459 C4.80384956,2.51454262 4.80512413,3.08849309 4.79195358,3.65995174 C4.78388131,4.00506957 5.04601762,4.25674394 5.31622619,4.32319262 C5.54947227,4.38091991 5.77549579,4.36347713 5.99429676,4.26795715 C6.27555159,4.1454424 6.40810674,3.91702507 6.39960961,3.62049783 C6.38176565,3.00294042 6.34947658,2.385383 6.32016149,1.76782559 C6.30486667,1.45053314 6.27895044,1.133656 6.26917875,0.815948254 C6.26747932,0.764450527 6.31251408,0.679728461 6.35669913,0.662285683 C7.08192874,0.374479839 7.83010059,0.272314995 8.59739097,0.449234604 C9.17519546,0.582962571 9.49681164,0.962550653 9.51975387,1.61457832 C9.54651982,2.37624631 9.55841579,3.14414386 9.49213822,3.90207411 C9.39102243,5.04955975 8.7320704,5.82202565 7.68267547,6.25975632 C6.82191672,6.6198251 5.91399892,6.68336665 4.99418516,6.62688528 C4.41383153,6.59158442 3.84792301,6.48485122 3.31855213,6.23276155 C2.6196636,5.89927224 2.08986787,5.40173775 1.89570856,4.63010246 C1.84217668,4.41746668 1.89358428,4.1745137 1.91312767,3.94651167 C1.93182134,3.72930755 1.97218269,3.51417995 2.00192262,3.30611252" id="Fill-1" fill="#003D69" mask="url(#mask-2)"></path>
                        </g>
                        <path d="M16.8835322,37.574361 C17.3793395,37.541552 17.8666496,37.5058358 18.3548094,37.4821635 C18.4104656,37.4792564 18.503934,37.5311694 18.5213531,37.5789294 C18.740154,38.1807052 18.823001,38.7995086 18.7006424,39.4340934 C18.5931538,39.993093 18.2354248,40.339872 17.7022302,40.4723541 C16.6128988,40.7431324 15.5312148,40.6833286 14.4949904,40.2422755 C13.6023675,39.8622721 13.1949303,39.1184622 13.1035862,38.1856889 C13.0700226,37.8472159 13.068748,37.5045899 13.0683232,37.1640404 C13.0653492,34.9828625 13.080644,32.8020999 13.0619503,30.6213373 C13.0496295,29.1893683 13.3924885,27.8707773 14.1568049,26.6572583 C14.4920164,26.1252535 14.8268032,25.5845274 14.9508612,24.9557568 C15.0043931,24.6820713 15.0354076,24.3921889 15.0082168,24.1168422 C14.9670057,23.7052757 14.6126756,23.405426 14.1954668,23.367218 C13.5607316,23.3090755 13.0109676,23.510498 12.5342789,23.9228951 C12.3898277,24.0474864 12.2462263,24.1749848 12.1183446,24.3157729 C12.0299745,24.4125388 11.954775,24.4137847 11.848136,24.3589646 C11.3021958,24.0786342 11.0043715,23.619723 10.896458,23.029991 C10.7528566,22.245066 10.899432,21.544863 11.5333176,21.0041369 C11.8230695,20.7570309 12.158706,20.5867561 12.5228078,20.4825147 C13.7927031,20.1199541 15.0664221,20.0838227 16.3235717,20.5190615 C17.454539,20.9106934 18.0994708,21.7408866 18.3378152,22.8987549 C18.5663878,24.0076172 18.3803008,25.0799328 18.0450892,26.1385433 C17.7774298,26.9849333 17.5012732,27.8288316 17.253582,28.6810359 C17.0789661,29.2828117 17.0288331,29.907014 17.0279834,30.5324622 C17.0250094,32.2389474 17.0386048,33.9458478 17.0207608,35.652333 C17.014388,36.2512017 16.9353647,36.8496551 16.8903299,37.4481085 C16.8860814,37.5045899 16.884382,37.5614866 16.8835322,37.574361" id="Fill-4" fill="#003D69"></path>
                        <path d="M4.95892209,24.3156484 C5.31750076,24.2886536 5.65143777,24.2770251 5.98197592,24.2363252 C6.93662791,24.1192094 7.85856596,23.8596443 8.76733346,23.5543957 C8.91858229,23.5037286 9.0078021,23.5469202 9.09744677,23.6511616 C9.38210045,23.9817437 9.53802269,24.3700532 9.57838403,24.7986472 C9.6000517,25.0262339 9.59920199,25.2621267 9.56436378,25.4876369 C9.45560058,26.1936542 8.98485986,26.5736575 8.34247722,26.7850474 C7.80036065,26.9632129 7.23785098,27.0404595 6.67194247,27.0549952 C5.84644678,27.0761757 5.01882682,27.0865583 4.19375599,27.052088 C3.58408728,27.0263392 2.97739256,26.9200213 2.36899842,26.8544032 C2.25088838,26.8419441 2.25386238,26.7696811 2.25216295,26.6841285 C2.24536525,26.2854364 2.2381427,25.8867443 2.22539701,25.4884675 C2.22199816,25.3850568 2.20585362,25.2808154 2.18333624,25.1798965 C2.10771183,24.8405929 1.91100339,24.6661651 1.56007213,24.6707335 C1.20871602,24.6753018 0.857784758,24.7176629 0.506003787,24.7330291 C0.446099057,24.7359363 0.351356114,24.7031272 0.327139308,24.6578591 C0.0577804493,24.1561715 -0.081572399,23.6249974 0.0505578931,23.0560306 C0.169517642,22.5431298 0.528946025,22.2540781 1.01243243,22.1058145 C1.56304612,21.9367856 2.13150378,21.9330479 2.69656258,21.9845456 C3.10867314,22.021923 3.52673169,22.0700983 3.92354742,22.1809845 C4.7520171,22.4127243 5.1025235,22.9297781 5.01585282,23.9098961 C5.00523142,24.0303343 4.98271404,24.1491114 4.95892209,24.3156484" id="Fill-6" fill="#003D69"></path>
                        <path d="M1.07484381,36.0119034 C1.62885636,36.5302031 2.19051631,36.9234962 2.81632956,37.2204387 C3.48165444,37.5356547 4.17459497,37.7457986 4.91979283,37.7134049 C5.12414868,37.7046835 5.33360281,37.6627378 5.52818697,37.5991962 C5.76950532,37.5207037 5.91395644,37.3388005 5.95559235,37.07882 C6.00105197,36.7939213 5.8910142,36.5804549 5.64162359,36.4654156 C5.18660255,36.255687 4.72520867,36.0584175 4.25744194,35.8781754 C3.51861693,35.593692 2.7819162,35.3079627 2.11999017,34.8627565 C1.29789334,34.309156 0.70521888,33.5881878 0.505536445,32.59478 C0.132512663,30.7371242 0.951210646,29.2441054 2.7237109,28.5571922 C3.76036014,28.1551776 4.84161928,28.0575811 5.94369638,28.1252757 C6.77514005,28.1767735 7.58619062,28.3308513 8.33266304,28.7079476 C8.6738226,28.8802989 8.98991565,29.1141152 9.28604045,29.3583141 C9.55752359,29.5817477 9.6671365,29.897379 9.63059887,30.2603549 C9.56941957,30.8633766 9.44238755,31.4489556 9.13776562,31.9776379 C9.01668159,32.1881972 8.8437651,32.3730076 8.67467232,32.5507578 C8.57143225,32.6595675 8.45119793,32.6595675 8.3126948,32.5470201 C7.70472551,32.052808 7.05894402,31.6188151 6.30100048,31.3808457 C5.95601721,31.2728666 5.60381138,31.2205383 5.24183386,31.2566698 C5.17343201,31.2633146 5.10418044,31.2741125 5.03832772,31.2936318 C4.74475205,31.381261 4.49578629,31.543645 4.43758099,31.8563691 C4.38319939,32.1487433 4.53784706,32.404986 4.77959027,32.5486813 C5.13392037,32.7592405 5.50991815,32.9411438 5.89228877,33.0964676 C6.56526106,33.3689072 7.26117559,33.5873572 7.92735018,33.8747477 C8.55018944,34.1434496 9.08678287,34.5454641 9.47170263,35.1223217 C9.89528431,35.7573219 10.0006487,36.4674921 9.96198674,37.2088102 C9.93352137,37.7553506 9.82858188,38.2848635 9.57196871,38.7753378 C9.15900844,39.5635853 8.48603614,40.0370322 7.66606359,40.3161166 C6.55039109,40.69612 5.39605668,40.7841645 4.22812686,40.7065026 C3.18722906,40.6375621 2.18839203,40.3887948 1.2507343,39.9244847 C1.01918765,39.810276 0.799536967,39.6645042 0.593906544,39.5079345 C0.213235349,39.2184675 0.00802978302,38.849262 0.0445674201,38.3434214 C0.0942756007,37.6594153 0.250197842,37.0210927 0.677178368,36.4708146 C0.796987829,36.3159061 0.933366684,36.1742874 1.07484381,36.0119034" id="Fill-8" fill="#003D69"></path>
                        <path d="M26.1425943,37.3971092 C26.4905516,37.014614 26.7254971,36.6067852 26.8975639,36.162825 C27.2829085,35.1681713 27.4401053,34.1411239 27.2264026,33.0891582 C27.0585844,32.2627028 26.5776471,31.669233 25.709241,31.535505 C24.9168841,31.4134056 24.1275012,31.4869144 23.3992976,31.8702403 C22.9791147,32.0911821 22.671094,32.4367153 22.4234028,32.8345767 C22.3533015,32.9471242 22.2819256,32.9836709 22.1557433,32.945463 C21.2792649,32.6804988 20.7133564,32.0949199 20.5009283,31.2190432 C20.297847,30.3838664 20.6572754,29.7177183 21.290736,29.1894513 C21.8872342,28.6919169 22.6005678,28.438166 23.3500142,28.2944707 C24.5404614,28.0660534 25.7343075,28.0253535 26.9302778,28.2791044 C28.9861572,28.7151739 30.4803766,30.2243895 30.8763426,32.2896975 C31.3254157,34.6328441 30.7403886,36.728054 29.3358139,38.6201802 C28.7987956,39.3436402 28.1734072,39.9840393 27.4545504,40.5285032 C27.3746774,40.5887223 27.2582668,40.6277609 27.1580008,40.6294221 C26.5623523,40.6385588 25.966279,40.6339905 25.3702057,40.6339905 C24.7036062,40.6339905 24.2171458,40.3387092 23.9350413,39.7331956 C23.5671158,38.9437022 23.2047134,38.1513017 22.8529324,37.3543328 C22.7841057,37.1973478 22.7025333,37.1624623 22.5534088,37.2048233 C22.130252,37.3244309 21.6960489,37.3186167 21.2626955,37.3074035 C21.2121376,37.3057422 21.1288658,37.2704414 21.1178195,37.2334793 C20.9172874,36.5743915 20.7911051,35.9065822 21.0090563,35.2279751 C21.2469758,34.4854111 21.8090606,34.1427851 22.5487354,34.0929486 C23.0368952,34.0601396 23.5314278,34.0800742 24.0208622,34.1099761 C24.4563399,34.1365555 24.7868781,34.3803391 24.9882599,34.7561895 C25.1917661,35.1366082 25.3557606,35.5386227 25.5278273,35.9352382 C25.7338826,36.4107616 25.9297413,36.890438 26.1425943,37.3971092" id="Fill-10" fill="#003D69"></path>
                        <path d="M13.1770439,46.3397309 C13.1018443,46.3397309 13.0402402,46.2782659 13.0402402,46.2030958 L13.0402402,42.4815545 C13.0402402,42.4063844 13.1014195,42.3382745 13.1761942,42.3295531 C13.1761942,42.3295531 13.3508101,42.3096185 13.4884635,42.2975747 C13.6418366,42.284285 13.806256,42.2776401 13.9770482,42.2776401 C14.1848029,42.2776401 14.3946819,42.2975747 14.601162,42.3374439 C14.8038184,42.3764825 14.9869315,42.4450077 15.1462526,42.540943 C15.3021748,42.6356324 15.4304814,42.7643767 15.5269238,42.9246841 C15.6225164,43.0833303 15.67095,43.2905672 15.67095,43.540165 C15.67095,43.683445 15.6514067,43.8126046 15.6135944,43.925152 C15.5749325,44.0393607 15.5264989,44.1402796 15.4704179,44.2258323 C15.4134872,44.3118003 15.3493339,44.387801 15.2800823,44.4517578 C15.2095562,44.5169606 15.1836399,44.5356493 15.1836399,44.5356493 C15.1228855,44.5800868 15.0536339,44.6282621 15.029842,44.6427978 C15.0056252,44.6573334 14.9945789,44.682667 15.0047754,44.6996945 C15.014972,44.7163066 15.0553333,44.78234 15.0944201,44.8467122 C15.0944201,44.8467122 15.2180533,45.0493806 15.2936777,45.1772943 C15.3693021,45.3056234 15.4708427,45.4742369 15.4708427,45.4742369 C15.5095047,45.538609 15.5732331,45.6440963 15.611895,45.7080532 L15.7181091,45.8845575 C15.7571959,45.9489296 15.8200746,46.0544169 15.8587365,46.1192044 C15.8587365,46.1192044 15.9258638,46.2325824 15.9742974,46.3173045 L15.9776962,46.3231188 C15.9810951,46.328933 15.9224649,46.3339167 15.8472654,46.3339167 L15.2206024,46.3339167 C15.1454029,46.3339167 15.0532091,46.2807577 15.0158217,46.215555 L14.0943085,44.6120653 C14.0569212,44.5468625 14.0598952,44.4783373 14.1006814,44.4596486 C14.1418924,44.4405446 14.226014,44.401506 14.2876181,44.3724347 L14.3581442,44.3371339 C14.4329189,44.2997565 14.5064191,44.2503353 14.5765204,44.1905315 C14.6474713,44.129897 14.7095004,44.0568035 14.7600583,43.9724967 C14.8131653,43.8840369 14.8399312,43.7756425 14.8399312,43.6506359 C14.8399312,43.5214763 14.8203878,43.4110054 14.7817259,43.3225456 C14.7422143,43.2324246 14.6861333,43.1589157 14.6147574,43.1032649 C14.545081,43.0488601 14.4630837,43.0089909 14.3704651,42.9853185 C14.2812453,42.9628921 14.2183665,42.9591544 14.2183665,42.9591544 C14.143167,42.954586 14.0666929,42.9512636 14.048424,42.9512636 C14.0301552,42.9512636 14.0021147,42.9516789 13.986395,42.9525095 C13.9706753,42.9529248 13.9171435,42.9604003 13.9009989,42.9628921 C13.8848544,42.9657992 13.871259,43.0293408 13.871259,43.1045108 L13.871259,46.2030958 C13.871259,46.2782659 13.8096548,46.3397309 13.7348801,46.3397309 L13.1770439,46.3397309 Z" id="Fill-12" fill="#003D69"></path>
                        <path d="M17.8437923,46.3648984 C17.7690176,46.3702973 17.6462342,46.3702973 17.5710346,46.3648984 C17.5710346,46.3648984 17.3263174,46.3474556 17.1614732,46.2938813 C17.0000278,46.2411377 16.8585507,46.1560003 16.7408655,46.0397151 C16.6227555,45.9238453 16.5284374,45.7701827 16.4608853,45.5828805 C16.3920585,45.3935017 16.3572203,45.1609314 16.3572203,44.8909836 C16.3572203,44.6251889 16.3920585,44.3951103 16.4608853,44.2078081 C16.5284374,44.0225824 16.6227555,43.8685045 16.7412904,43.7505581 C16.8589756,43.6326117 17.0008775,43.5453978 17.1623229,43.4905777 C17.3267423,43.4353422 17.5102802,43.4071015 17.7074135,43.4071015 C17.9007231,43.4071015 18.0838361,43.4345116 18.2508046,43.4880859 C18.4139494,43.5408295 18.5562763,43.6259669 18.6743863,43.7418367 C18.7920715,43.8581219 18.8863896,44.0121998 18.9543666,44.1990867 C19.0227684,44.3884655 19.0576066,44.6210358 19.0576066,44.8909836 C19.0576066,45.1609314 19.0227684,45.3935017 18.9543666,45.5828805 C18.8863896,45.7697674 18.7920715,45.9238453 18.6743863,46.0397151 C18.5562763,46.1560003 18.4139494,46.2411377 18.2508046,46.2938813 C18.0838361,46.3474556 17.8437923,46.3648984 17.8437923,46.3648984 M17.841668,44.0483313 C17.7677431,44.0342109 17.6470839,44.0346262 17.5735838,44.0495772 C17.5735838,44.0495772 17.3594562,44.0927688 17.2426207,44.2310652 C17.1279096,44.3677002 17.0718285,44.5836585 17.0718285,44.8909836 C17.0718285,45.2066148 17.1270598,45.4234036 17.2404965,45.5542245 C17.3552076,45.6867065 17.5119796,45.7535705 17.7074135,45.7535705 C17.9032722,45.7535705 18.0591944,45.6862912 18.1717814,45.5538092 C18.2835185,45.4229883 18.3374753,45.2061995 18.3374753,44.8909836 C18.3374753,44.576183 18.2835185,44.3581482 18.1722062,44.2256662 C18.0596193,44.0906923 17.841668,44.0483313 17.841668,44.0483313" id="Fill-14" fill="#003D69"></path>
                        <path d="M21.1374904,46.3648984 C21.0627157,46.3702973 20.9399322,46.3702973 20.8647327,46.3648984 C20.8647327,46.3648984 20.6200155,46.3474556 20.4551712,46.2938813 C20.2937259,46.2411377 20.1522487,46.1560003 20.0345636,46.0397151 C19.9164535,45.9238453 19.8221354,45.7701827 19.7545833,45.5828805 C19.6857566,45.3935017 19.6509184,45.1609314 19.6509184,44.8909836 C19.6509184,44.6251889 19.6857566,44.3951103 19.7545833,44.2078081 C19.8221354,44.0225824 19.9164535,43.8685045 20.0349884,43.7505581 C20.1526736,43.6326117 20.2945756,43.5453978 20.456021,43.4905777 C20.6204403,43.4353422 20.8039782,43.4071015 21.0011115,43.4071015 C21.1944211,43.4071015 21.3775341,43.4345116 21.5445026,43.4880859 C21.7076474,43.5408295 21.8499743,43.6259669 21.9680843,43.7418367 C22.0857695,43.8581219 22.1800876,44.0121998 22.2480646,44.1990867 C22.3164664,44.3884655 22.3513047,44.6210358 22.3513047,44.8909836 C22.3513047,45.1609314 22.3164664,45.3935017 22.2480646,45.5828805 C22.1800876,45.7697674 22.0857695,45.9238453 21.9680843,46.0397151 C21.8499743,46.1560003 21.7076474,46.2411377 21.5445026,46.2938813 C21.3775341,46.3474556 21.1374904,46.3648984 21.1374904,46.3648984 M21.1353661,44.0483313 C21.0614411,44.0342109 20.9407819,44.0346262 20.8672818,44.0495772 C20.8672818,44.0495772 20.6531542,44.0927688 20.5363188,44.2310652 C20.4216076,44.3677002 20.3655266,44.5836585 20.3655266,44.8909836 C20.3655266,45.2066148 20.4207579,45.4234036 20.5341945,45.5542245 C20.6489057,45.6867065 20.8056776,45.7535705 21.0011115,45.7535705 C21.1969702,45.7535705 21.3528925,45.6862912 21.4654794,45.5538092 C21.5772166,45.4229883 21.6311733,45.2061995 21.6311733,44.8909836 C21.6311733,44.576183 21.5772166,44.3581482 21.4659042,44.2256662 C21.3533173,44.0906923 21.1353661,44.0483313 21.1353661,44.0483313" id="Fill-16" fill="#003D69"></path>
                        <path d="M23.356557,47.483022 C23.2817823,47.488421 23.1589989,47.4875903 23.0837993,47.4817761 C23.0837993,47.4817761 23.0417385,47.4784536 22.9249031,47.4510436 C22.8267613,47.4273712 22.7634577,47.4099284 22.7634577,47.4099284 C22.6912321,47.3899938 22.6432234,47.3131626 22.6572436,47.2396537 L22.7205472,46.8995195 C22.7345675,46.8255954 22.7885242,46.7749283 22.8403567,46.7865568 L22.8845417,46.7944476 L22.9469956,46.8060761 C22.9924552,46.8152128 23.0413137,46.8243495 23.0549091,46.8260107 C23.0689293,46.8276719 23.1322329,46.8260107 23.1725943,46.8226882 L23.2006348,46.8093985 C23.247369,46.7878027 23.2813575,46.7475182 23.3013257,46.6902062 C23.3174702,46.6441074 23.3263922,46.5867954 23.3289414,46.5145325 C23.3306408,46.449745 23.3310656,46.407384 23.3310656,46.407384 C23.3314905,46.3322139 23.3319154,46.2092839 23.3319154,46.1341138 L23.3319154,44.2000419 C23.3319154,44.1248719 23.2703112,44.0634068 23.1951116,44.0634068 L23.0604322,44.0634068 C22.9852327,44.0634068 22.9151314,44.041811 22.9040851,44.0156468 C22.8934637,43.989898 22.9130071,43.9138973 22.9474205,43.8470333 L23.0961201,43.5575663 C23.1305335,43.4907023 23.2201782,43.4362974 23.2953777,43.4362974 L23.9330869,43.4362974 C24.0082865,43.4362974 24.0698907,43.4977624 24.0698907,43.5729325 L24.0698907,46.2910988 C24.0698907,46.3662689 24.0673415,46.4891989 24.0639427,46.564369 C24.0639427,46.564369 24.0554455,46.7749283 24.027405,46.9115634 C24.0006391,47.0423842 23.9547546,47.1528551 23.891451,47.2388231 C23.8298469,47.3227146 23.7453005,47.3862561 23.6399361,47.4277865 C23.5303232,47.4709782 23.356557,47.483022 23.356557,47.483022 L23.356557,47.483022 Z M23.4682942,43.0500645 C23.3930947,43.0500645 23.3319154,42.9885994 23.3319154,42.9134294 L23.3319154,42.5363331 C23.3319154,42.461163 23.3930947,42.399698 23.4682942,42.399698 L23.9097198,42.399698 C23.9849194,42.399698 24.0465236,42.461163 24.0465236,42.5363331 L24.0465236,42.9134294 C24.0465236,42.9885994 23.9849194,43.0500645 23.9097198,43.0500645 L23.4682942,43.0500645 Z" id="Fill-18" fill="#003D69"></path>
                        <path d="M26.2743422,46.3798909 C26.1991427,46.3836286 26.0763592,46.3836286 26.0011597,46.3798909 C26.0011597,46.3798909 25.7611159,46.3695082 25.6022197,46.3358686 C25.4467223,46.3026443 25.3124677,46.2478241 25.2024299,46.1714081 C25.0945165,46.097484 25.0103949,45.9990569 24.9521896,45.8790339 C24.8931346,45.7573498 24.8633947,45.6053484 24.8633947,45.4263523 C24.8633947,45.2502633 24.8999323,45.102415 24.971733,44.9865451 C25.0452331,44.8681834 25.1412506,44.773494 25.2568115,44.7041382 C25.3753464,44.6327059 25.5108756,44.5820388 25.6595753,44.5529675 C25.8116738,44.5226503 25.9667463,44.507284 26.1201194,44.507284 C26.1507091,44.507284 26.1914953,44.5085299 26.2429029,44.5106064 L26.2947353,44.5122677 C26.3631372,44.5160054 26.4362125,44.5197431 26.4574553,44.520989 C26.4786981,44.522235 26.4952675,44.5060381 26.4948426,44.4852729 C26.4944178,44.4636771 26.473175,44.3889223 26.4481085,44.3179053 C26.4481085,44.3179053 26.3805563,44.1281112 26.2913365,44.0894879 C26.1795993,44.0408973 26.0359979,44.0168097 25.8639311,44.0168097 C25.7713125,44.0168097 25.663399,44.0276076 25.5427398,44.0496187 C25.4433234,44.0683074 25.3566528,44.0911491 25.3566528,44.0911491 C25.2840023,44.1106684 25.2083779,44.0703839 25.1879848,44.0010281 C25.1680166,43.9320876 25.1391264,43.8290922 25.1238315,43.7721955 L25.1025887,43.6912112 L25.089843,43.6422053 C25.0800713,43.5994289 25.1306292,43.5471006 25.2028548,43.5263354 C25.2028548,43.5263354 25.4012627,43.4690234 25.5525115,43.4436898 C25.7211794,43.4154491 25.8749774,43.4009135 26.0096568,43.4009135 C26.4017991,43.4009135 26.7072708,43.4943569 26.9184243,43.6779214 C27.126179,43.8589941 27.2115751,44.4296221 27.2115751,44.4296221 C27.2226214,44.5039616 27.2319682,44.626061 27.2319682,44.7012311 L27.2319682,46.0800412 C27.2319682,46.1552113 27.1720635,46.2320425 27.0994131,46.2503159 C27.0994131,46.2503159 26.9375428,46.2910157 26.7642015,46.3267319 C26.5717416,46.3666011 26.2743422,46.3798909 26.2743422,46.3798909 L26.2743422,46.3798909 Z M26.2598971,44.9898675 C26.2216601,44.9894522 26.1290414,44.9948512 26.0542667,45.0014961 C26.0542667,45.0014961 25.8728531,45.0172776 25.7623905,45.0725131 C25.6379076,45.1343934 25.5720549,45.2469409 25.5720549,45.3976963 C25.5720549,45.4915551 25.5962717,45.5683864 25.6434307,45.6261136 C25.6880406,45.6796879 25.7436968,45.7199724 25.8091247,45.7461366 C25.870304,45.7693936 25.935307,45.7839293 26.0020094,45.7880823 C26.0640384,45.7922353 26.1171454,45.7947272 26.1609056,45.7947272 C26.2433277,45.7947272 26.3019579,45.7847599 26.3019579,45.7847599 C26.3763077,45.7731313 26.4498079,45.7615028 26.4655276,45.7577651 C26.4812472,45.754858 26.4939929,45.6909011 26.4939929,45.615731 L26.4939929,45.1559892 C26.4939929,45.0804039 26.4812472,45.0168623 26.4655276,45.0135399 C26.4498079,45.0102174 26.3979754,45.0019114 26.3499667,44.9944359 L26.3040822,44.9919441 L26.2598971,44.9898675 Z" id="Fill-20" fill="#003D69"></path>
                        <path d="M28.2262168,46.3397309 C28.1510173,46.3397309 28.0894131,46.2782659 28.0894131,46.2030958 L28.0894131,44.445113 C28.0894131,44.3699429 28.0983351,44.2478434 28.1085316,44.173504 L28.1102311,44.1635367 C28.1204276,44.0891972 28.0677454,44.0281475 27.9925459,44.0281475 L27.8026351,44.0281475 C27.7274356,44.0281475 27.6955714,43.9741579 27.7312593,43.9081246 L27.9198955,43.5621761 C27.9555834,43.4961428 28.0465026,43.4421532 28.1217022,43.4421532 L28.6910095,43.4421532 C28.7657842,43.4421532 28.8273884,43.5036182 28.8273884,43.5787883 L28.8273884,46.2030958 C28.8273884,46.2782659 28.7657842,46.3397309 28.6910095,46.3397309 L28.2262168,46.3397309 Z M28.2087977,43.050106 C28.1335981,43.050106 28.071994,42.988641 28.071994,42.9134709 L28.071994,42.5363746 C28.071994,42.4612046 28.1335981,42.3997395 28.2087977,42.3997395 L28.6676424,42.3997395 C28.7424171,42.3997395 28.8040213,42.4612046 28.8040213,42.5363746 L28.8040213,42.9134709 C28.8040213,42.988641 28.7424171,43.050106 28.6676424,43.050106 L28.2087977,43.050106 Z" id="Fill-22" fill="#003D69"></path>
                        <path d="M29.9210958,46.3397309 C29.8458963,46.3397309 29.7842921,46.2782659 29.7842921,46.2030958 L29.7842921,45.6690146 C29.7842921,45.5938445 29.8458963,45.5323795 29.9210958,45.5323795 L30.455565,45.5323795 C30.5307645,45.5323795 30.5923687,45.5938445 30.5923687,45.6690146 L30.5923687,46.2030958 C30.5923687,46.2782659 30.5307645,46.3397309 30.455565,46.3397309 L29.9210958,46.3397309 Z" id="Fill-24" fill="#003D69"></path>
                        <path d="M32.9307775,46.3693421 C32.8560028,46.3755717 32.7332193,46.3764023 32.6584446,46.3710033 C32.6584446,46.3710033 32.4158517,46.3539759 32.2442098,46.3020628 C32.0768164,46.2513957 31.9281167,46.167089 31.8027841,46.052465 C31.6774515,45.937841 31.5763358,45.786255 31.5032605,45.6014446 C31.4293355,45.4145577 31.3919481,45.1836485 31.3919481,44.914116 C31.3919481,44.6487366 31.4293355,44.4194887 31.5032605,44.2330171 C31.5767606,44.0477914 31.6778764,43.8937135 31.8036338,43.7749365 C31.9293913,43.6565748 32.0785158,43.5676997 32.2463341,43.5112183 C32.4171263,43.4539063 32.6015139,43.4244197 32.7943986,43.4244197 C32.9129335,43.4244197 33.0446389,43.4414472 33.1861161,43.4750868 C33.3042261,43.5029122 33.4151136,43.5456886 33.4151136,43.5456886 C33.4852149,43.5726833 33.5107062,43.6474381 33.4716195,43.7113949 L33.3029515,43.987157 C33.2638648,44.0511138 33.1763444,44.08683 33.1092171,44.0660648 L33.0382661,44.0552669 C32.9456474,44.0411465 32.8636502,44.0340863 32.7943986,44.0340863 C32.5964156,44.0340863 32.4290222,44.1055187 32.2973168,44.2458915 C32.1668859,44.3850184 32.1006084,44.609698 32.1006084,44.914116 C32.1006084,45.0690245 32.1176026,45.1977688 32.1507414,45.2974419 C32.1851548,45.4004373 32.2348629,45.4855747 32.2981665,45.5511928 C32.361895,45.6172261 32.4375194,45.666232 32.5233403,45.6969646 C32.6044879,45.7260358 32.6937077,45.7451398 32.7884506,45.7534459 C32.822864,45.7567684 32.8577022,45.7584296 32.8925404,45.7584296 C32.9855839,45.7584296 33.0790523,45.7459705 33.1708212,45.7218828 C33.2715122,45.6957186 33.3288678,45.6654014 33.3288678,45.6654014 C33.3955702,45.6305159 33.4830906,45.6537729 33.5234519,45.7173145 L33.6747007,45.952792 C33.7150621,46.0163335 33.6963684,46.1010556 33.63264,46.1409248 C33.63264,46.1409248 33.4703449,46.2430896 33.3195209,46.2941721 C33.1487287,46.351484 32.9307775,46.3693421 32.9307775,46.3693421" id="Fill-26" fill="#003D69"></path>
                        <path d="M35.6857153,46.3648984 C35.6109406,46.3702973 35.4881571,46.3702973 35.4129576,46.3648984 C35.4129576,46.3648984 35.1682404,46.3474556 35.0033962,46.2938813 C34.8419508,46.2411377 34.7004737,46.1560003 34.5827885,46.0397151 C34.4646784,45.9238453 34.3703604,45.7701827 34.3028082,45.5828805 C34.2339815,45.3935017 34.1991433,45.1609314 34.1991433,44.8909836 C34.1991433,44.6251889 34.2339815,44.3951103 34.3028082,44.2078081 C34.3703604,44.0225824 34.4646784,43.8685045 34.5832133,43.7505581 C34.7008985,43.6326117 34.8428005,43.5453978 35.0042459,43.4905777 C35.1686652,43.4353422 35.3522031,43.4071015 35.5493364,43.4071015 C35.742646,43.4071015 35.9257591,43.4345116 36.0927276,43.4880859 C36.2558724,43.5408295 36.3981992,43.6259669 36.5163093,43.7418367 C36.6339944,43.8581219 36.7283125,44.0121998 36.7962895,44.1990867 C36.8646914,44.3884655 36.8995296,44.6210358 36.8995296,44.8909836 C36.8995296,45.1609314 36.8646914,45.3935017 36.7962895,45.5828805 C36.7283125,45.7697674 36.6339944,45.9238453 36.5163093,46.0397151 C36.3981992,46.1560003 36.2558724,46.2411377 36.0927276,46.2938813 C35.9257591,46.3474556 35.6857153,46.3648984 35.6857153,46.3648984 M35.683591,44.0483313 C35.609666,44.0342109 35.4890069,44.0346262 35.4155067,44.0495772 C35.4155067,44.0495772 35.2013792,44.0927688 35.0845437,44.2310652 C34.9698325,44.3677002 34.9137515,44.5836585 34.9137515,44.8909836 C34.9137515,45.2066148 34.9689828,45.4234036 35.0824194,45.5542245 C35.1971306,45.6867065 35.3539026,45.7535705 35.5493364,45.7535705 C35.7451952,45.7535705 35.9011174,45.6862912 36.0137043,45.5538092 C36.1254415,45.4229883 36.1793983,45.2061995 36.1793983,44.8909836 C36.1793983,44.576183 36.1254415,44.3581482 36.0141292,44.2256662 C35.9015423,44.0906923 35.683591,44.0483313 35.683591,44.0483313" id="Fill-28" fill="#003D69"></path>
                        <path d="M41.4293469,46.3397309 C41.3541473,46.3397309 41.2925432,46.2782659 41.2925432,46.2030958 L41.2925432,44.8060123 C41.2925432,44.7312576 41.2865952,44.6083275 41.2793726,44.5335728 C41.2793726,44.5335728 41.2581298,44.3217676 41.1876037,44.2304007 C41.1132538,44.1348807 40.9896207,44.0867054 40.820103,44.0867054 C40.752126,44.0867054 40.6883976,44.0941809 40.6306171,44.1091318 C40.5656141,44.1261593 40.509958,44.1577224 40.4640735,44.2034059 C40.4194636,44.2478434 40.3846254,44.3080626 40.3595588,44.382402 C40.3357669,44.4542497 40.3319432,44.5215289 40.3319432,44.5215289 C40.3276946,44.596699 40.3242958,44.7196291 40.3242958,44.7947991 L40.3242958,46.2030958 C40.3242958,46.2782659 40.2626916,46.3397309 40.1874921,46.3397309 L39.7171762,46.3397309 C39.6419766,46.3397309 39.5803725,46.2782659 39.5803725,46.2030958 L39.5803725,44.7947991 C39.5803725,44.7196291 39.5735748,44.596699 39.5655025,44.5223595 C39.5655025,44.5223595 39.540436,44.2972646 39.4584387,44.2125426 C39.3768663,44.1290664 39.2647043,44.0867054 39.1253515,44.0867054 C39.061623,44.0867054 39.0017183,44.092935 38.946487,44.1058094 C38.8848828,44.1199297 38.8288018,44.1485857 38.7795185,44.1909468 C38.7293854,44.2337231 38.6898738,44.2947728 38.6622581,44.3724347 C38.6363419,44.4467742 38.6316685,44.5215289 38.6316685,44.5215289 C38.6274199,44.596699 38.6235962,44.7196291 38.6235962,44.7947991 L38.6235962,46.2030958 C38.6235962,46.2782659 38.5619921,46.3397309 38.4867925,46.3397309 L38.0164767,46.3397309 C37.9412771,46.3397309 37.8796729,46.2782659 37.8796729,46.2030958 L37.8796729,44.1589683 C37.8796729,44.0837983 37.8184936,44.0223332 37.7432941,44.0223332 L37.5801493,44.0223332 C37.5049497,44.0223332 37.4722358,43.9679284 37.5079237,43.901895 L37.6884876,43.5625914 C37.7237507,43.4961428 37.8138202,43.4421532 37.8890198,43.4421532 L38.3606102,43.4421532 C38.4358098,43.4421532 38.5101596,43.501957 38.5258793,43.5754659 L38.5560441,43.7158387 C38.5717638,43.7889322 38.6053274,43.825479 38.6308188,43.796823 C38.6563102,43.7677517 38.7225877,43.702549 38.777819,43.6518818 C38.777819,43.6518818 38.86364,43.572974 38.984724,43.5131702 C39.1045335,43.4546123 39.2455858,43.4247104 39.4049069,43.4247104 C39.7813295,43.4247104 40.1012462,43.7316203 40.1012462,43.7316203 C40.1556278,43.7835333 40.2121337,43.8474901 40.2274285,43.873239 C40.2427234,43.8994032 40.2694893,43.9002338 40.2869084,43.8761461 C40.3043275,43.8516432 40.359134,43.7851945 40.4084173,43.7287131 C40.4084173,43.7287131 40.5176054,43.6037066 40.6403888,43.5310283 C40.761048,43.4604266 40.9152708,43.4247104 41.0996584,43.4247104 C41.425948,43.4247104 41.6659918,43.5094325 41.8121423,43.6768001 C41.960842,43.8474901 42.0211716,44.3765878 42.0211716,44.3765878 C42.0296687,44.4513425 42.0364664,44.5738573 42.0364664,44.6490273 L42.0364664,46.2030958 C42.0364664,46.2782659 41.9748623,46.3397309 41.8996627,46.3397309 L41.4293469,46.3397309 Z" id="Fill-30" fill="#003D69"></path>
                        <path d="M65.5019566,21.3245441 C65.4140114,21.3623368 65.2844302,21.4200641 65.1132131,21.4906658 C64.773753,21.635607 64.2698735,21.8345377 63.6223926,22.0525725 C62.9766111,22.2743449 62.1804305,22.502347 61.2623161,22.6946328 C60.8034714,22.7913987 60.3123376,22.872383 59.7961372,22.9384164 C59.5382495,22.9716407 59.2735641,22.9986355 59.0029306,23.0189854 C58.7327221,23.0422425 58.4552909,23.0451496 58.1774349,23.077128 C57.8991541,23.1124289 57.6161998,23.1510522 57.326023,23.1622654 C57.0362711,23.1755551 56.7418457,23.178047 56.4440215,23.1701562 C56.1487464,23.1635113 55.8398759,23.1385931 55.5509736,23.1041228 C55.2442274,23.0659148 54.9387558,23.0123406 54.6252119,22.944646 C53.3786837,22.6780206 52.1066641,22.1858851 50.8792544,21.4935729 C49.650995,20.8020914 48.4681952,19.9154168 47.3533724,18.9049816 C46.2368502,17.8945463 45.1861807,16.7640882 44.1826702,15.581717 C43.1761858,14.3993458 42.2253575,13.164231 41.2430899,11.9457283 L41.1517458,11.8331808 C41.1207313,11.7941422 41.0841937,11.7538577 41.05063,11.7139885 L40.8454244,11.4751886 C40.775748,11.3966961 40.7005485,11.3223566 40.6283229,11.2459406 C40.5556725,11.16994 40.4834469,11.0939393 40.4044237,11.0233376 C40.1036254,10.7284716 39.767989,10.4680758 39.4225809,10.2280299 C38.7241172,9.75624431 37.9457806,9.41195709 37.1563977,9.21510287 C36.3670148,9.00994258 35.5729584,8.94806224 34.8150149,8.95636833 C34.0557968,8.96841215 33.3284429,9.05479543 32.6389012,9.17066532 C31.9493595,9.28528929 31.2929566,9.43189169 30.6811636,9.5602207 C30.603415,9.57641757 30.5256663,9.59219913 30.4487673,9.608396 C30.3714434,9.62542347 30.2949693,9.64245094 30.2184952,9.65906311 C30.0774429,9.68813441 29.9342664,9.71471388 29.7919395,9.73797092 C29.5064361,9.784485 29.2243316,9.82061647 28.9477502,9.84595003 C28.6711688,9.87128358 28.4005353,9.88664984 28.1371245,9.89080288 C27.8737136,9.89454062 27.6196495,9.85965507 27.3736578,9.85716324 C27.1272412,9.85425611 26.8867725,9.86422341 26.6552259,9.85010307 C26.4236792,9.83847455 26.2006297,9.81521751 25.9877767,9.77950135 C25.1350902,9.64494277 24.4565948,9.29027294 24.0177183,8.83468418 C23.7959433,8.60958928 23.6336483,8.3670516 23.507466,8.14361792 C23.3817085,7.91893832 23.2958875,7.7112862 23.2368325,7.53893493 C23.2045435,7.45296695 23.1833006,7.37572036 23.1620578,7.30885638 C23.1399653,7.2424077 23.1246705,7.18426511 23.1131994,7.13775103 C23.0885577,7.04430758 23.0762369,6.99654759 23.0762369,6.99654759 C23.0762369,6.99654759 23.0741126,7.04596879 23.0702889,7.14231938 C23.0656155,7.23742405 23.0626415,7.38278054 23.075812,7.57174397 C23.0868583,7.7607074 23.1140491,7.994939 23.1799018,8.2694551 C23.2436302,8.54438652 23.3574917,8.85711061 23.5474024,9.18395506 C23.734764,9.51163011 24.0075218,9.84761124 24.364401,10.1487068 C24.72213,10.4485565 25.1631307,10.7056298 25.6563888,10.9058065 C25.9036552,11.0050642 26.1636672,11.0906169 26.4343006,11.1637104 C26.7045092,11.2338968 26.9844895,11.3032526 27.2746663,11.3368923 C27.5648431,11.3697013 27.8622425,11.3464443 28.1630407,11.3414606 C28.4638389,11.3344004 28.7701603,11.3190342 29.0807302,11.2895476 C29.3913001,11.2613069 29.7065434,11.2210224 30.026885,11.1686941 C30.1870558,11.1425299 30.3485012,11.1130433 30.5129206,11.0789883 L30.6378283,11.0524089 L30.7423429,11.0283212 C30.8196668,11.0121244 30.8974155,10.9959275 30.9751642,10.9797306 C31.6073503,10.8468333 32.2344381,10.7077063 32.8780953,10.6005578 C34.1581872,10.3841843 35.5134786,10.2924021 36.797819,10.6200771 C37.4385022,10.7799693 38.0507201,11.0524089 38.609406,11.4286745 C38.8855626,11.6222063 39.1566209,11.8294431 39.4034623,12.0723961 C39.4680405,12.1292928 39.5275204,12.1928343 39.5874251,12.2555453 C39.6473298,12.3190868 39.7093588,12.3797212 39.7675642,12.4453393 L39.9392061,12.645516 C39.9680963,12.6791556 39.9965617,12.7107187 40.0254519,12.7468502 L40.116796,12.8593976 C41.077396,14.0504902 42.0452185,15.3080315 43.0771943,16.5198893 C44.1074707,17.7342389 45.2010507,18.912457 46.3800267,19.979789 C47.5577283,21.0467056 48.8254993,22.00149 50.1676202,22.7565131 C51.5071919,23.5127822 52.9219632,24.0630603 54.3188905,24.3616641 C54.6655732,24.4372494 55.0173542,24.4987145 55.3619126,24.5414908 C55.7247398,24.5855131 56.0608011,24.6108466 56.401111,24.619568 C57.0770573,24.638672 57.7232636,24.5992181 58.3405797,24.552704 C58.6486005,24.5207256 58.9430259,24.4426484 59.229379,24.3720467 C59.5153073,24.2993684 59.7918887,24.2212912 60.0586984,24.139061 C60.5927427,23.9762617 61.0872754,23.7918666 61.543571,23.6058103 C62.4561622,23.2291294 63.2119814,22.830022 63.8169767,22.4803358 C64.421972,22.1285731 64.8723196,21.8179256 65.1765167,21.6040439 C65.3290401,21.4981413 65.441627,21.4100968 65.5189508,21.3536154 C65.5958498,21.2963034 65.6353615,21.2664015 65.6353615,21.2664015 C65.6353615,21.2664015 65.5899018,21.2863361 65.5019566,21.3245441" id="Fill-32" fill="#FF4F03"></path>
                        <path d="M51.8389621,37.5347825 L51.7374215,37.4741481 L51.6044415,37.4542135 L51.1048106,37.3790434 L50.6090033,37.2806163 C50.4445839,37.243239 50.2822889,37.1983861 50.1187192,37.1581016 C49.9564241,37.1140793 49.7966782,37.0605051 49.6352328,37.0123298 C49.475062,36.9616627 49.31829,36.8989517 49.1593938,36.843301 C49.0017721,36.7851584 48.848399,36.7149719 48.6924768,36.6514304 C48.5374043,36.5858123 48.3882797,36.5077351 48.2357563,36.4371334 C48.0840827,36.3640399 47.938357,36.2789025 47.7896573,36.2008253 C47.6418073,36.1202563 47.5003302,36.0280587 47.3554542,35.9429214 C47.2118528,35.8548769 47.0750491,35.7564497 46.9344217,35.6642522 C46.7954937,35.5687322 46.6633634,35.4644909 46.5269845,35.3652331 C46.3935797,35.2630683 46.2661228,35.1525974 46.1348422,35.0471101 C46.0069605,34.9378851 45.884177,34.8220152 45.7584196,34.7102984 C45.6364858,34.5944285 45.5188006,34.4735749 45.3985663,34.3556285 L45.0561322,33.9843465 L44.7323917,33.5964524 L44.427345,33.1936072 L44.1422664,32.7766418 L43.8780058,32.3459713 C43.7968583,32.1985383 43.7131616,32.0523512 43.6345632,31.9036722 C43.5610631,31.7520862 43.4833144,31.6025767 43.4127882,31.4497447 C43.3465107,31.2948362 43.2759845,31.1420043 43.2131058,30.9858499 C43.1549005,30.8280342 43.0907472,30.6722952 43.0363656,30.5128183 C42.9858077,30.3525109 42.9293018,30.1938647 42.8829925,30.031896 C42.840082,29.8690967 42.7907987,29.708374 42.7529865,29.5443288 C42.7181483,29.379453 42.6765124,29.2162385 42.6467724,29.0509474 C42.6200065,28.8848257 42.5868677,28.7195346 42.5647752,28.5525823 C42.5473561,28.38563 42.5244138,28.2186777 42.515067,28.0504794 C42.5099687,27.8822812 42.4980727,27.7149136 42.4861768,27.5471307 C42.4798039,27.3793478 42.458986,27.2111496 42.4466651,27.042536 L42.4254223,26.5346189 L42.4279715,26.02421 L42.4300957,25.6795075 L42.2078959,25.5495173 C42.1021067,25.4876369 41.9852713,25.4141281 41.8735341,25.3431111 C41.761372,25.2708481 41.6483603,25.1977546 41.5370479,25.1221692 C41.3135735,24.9726597 41.0930731,24.8173359 40.8755468,24.6578591 C40.765509,24.5793666 40.6584452,24.4971363 40.5513814,24.4149061 C40.4426182,24.334337 40.3347048,24.2525221 40.2297653,24.1678 C40.1248258,24.0826627 40.0152129,24.0016783 39.9132474,23.9136338 L39.6018277,23.6524075 L39.2993301,23.3812138 C39.1965149,23.2919234 39.1017719,23.1964034 39.0036301,23.1021293 C38.9071878,23.00744 38.8064968,22.9152424 38.7155776,22.8151541 L38.4334731,22.5202881 L38.1662385,22.2121323 C38.0740447,22.1107981 37.9937468,22.0011578 37.9108999,21.8927634 C37.8293275,21.7831231 37.7405325,21.6772205 37.6687318,21.5609353 L37.4410089,21.2166481 L37.603304,21.5978974 C37.6538618,21.7283029 37.7252377,21.8466646 37.7876916,21.9708406 C37.8522697,22.0937706 37.9151484,22.2191925 37.9899231,22.3363083 L38.2070247,22.6943006 L38.442395,23.0406643 C38.5197189,23.1577801 38.6068144,23.2665898 38.6905111,23.378722 C38.7750575,23.4900235 38.8574796,23.6038169 38.9475491,23.7101348 L39.213934,24.035318 L39.4905154,24.3513645 C39.5814346,24.458513 39.6791516,24.558186 39.7738945,24.6620121 C39.9629555,24.8692489 40.1613634,25.0677643 40.3627453,25.2629573 C40.5637023,25.4589809 40.7689078,25.6508515 40.9792117,25.8381537 C41.0833015,25.9328431 41.1903652,26.0250406 41.297429,26.1172382 C41.3224955,26.138834 41.347562,26.1600145 41.3726286,26.1807797 L41.3297181,26.4735692 L41.2753365,27.0338146 C41.2625908,27.2211169 41.2553682,27.409665 41.2545185,27.5977978 C41.2570677,27.7859306 41.2783105,27.9732329 41.2957296,28.1601198 L41.3679551,28.7195346 C41.3925968,28.9060062 41.4291344,29.0904013 41.4592992,29.275627 C41.4928629,29.4608527 41.5383225,29.6431712 41.5778341,29.827151 C41.6203197,30.0098849 41.6747013,30.1901269 41.723135,30.3716149 C41.7745426,30.5522722 41.8374213,30.7296071 41.894352,30.9086033 C41.9551065,31.0863535 42.0260575,31.260366 42.0919102,31.436455 C42.1615866,31.6108828 42.240185,31.7815728 42.3145349,31.9539241 C42.3931333,32.1246141 42.4793791,32.2915664 42.5618012,32.4601799 C42.6493216,32.6263016 42.7427899,32.7895162 42.8332843,32.9539767 L43.1281346,33.4340684 L43.445927,33.8992092 L43.7862369,34.3485684 L44.1473647,34.7809001 C44.2748216,34.9187811 44.4001542,35.0587386 44.5293105,35.1949584 C44.6631402,35.3270252 44.7944208,35.4615837 44.9307996,35.5907434 C45.0705773,35.7157499 45.2078059,35.8444942 45.3505576,35.9665937 C45.4967081,36.0845401 45.639035,36.2070549 45.7881595,36.3212635 C45.9398332,36.4325651 46.0876832,36.5484349 46.2427557,36.6547528 C46.3995276,36.7585789 46.5524759,36.8678039 46.7126467,36.9658157 C46.8745169,37.061751 47.0325634,37.1639158 47.1974077,37.2540369 C47.3635265,37.3416661 47.5262464,37.4363554 47.695764,37.5181704 C47.8657065,37.5974935 48.0330999,37.6838768 48.2060164,37.7573856 C48.3797826,37.8288179 48.5509997,37.9064798 48.727315,37.9716826 C48.9044801,38.0343935 49.0795208,38.103334 49.2588102,38.160646 C49.4385244,38.2146356 49.616964,38.2740241 49.7983776,38.32303 C49.9806409,38.3687135 50.1620545,38.4181347 50.3451676,38.4596651 L50.8979056,38.5697207 L51.3223369,38.6332623 L52.7587759,39.488789 C52.5654663,39.4771605 52.3725816,39.4667779 52.1767229,39.4518269 L51.434499,39.3841323 L51.3576,39.3770722 L51.2688051,39.3637824 L51.0912152,39.3380336 L50.7356105,39.2869512 C50.500665,39.2412677 50.26402,39.2038903 50.0299243,39.1528079 C49.797103,39.0975724 49.5613078,39.0539655 49.3310357,38.9879321 L48.984353,38.8957346 C48.8687921,38.865002 48.7553555,38.826794 48.6406443,38.7923238 C48.526358,38.7566076 48.411222,38.7242139 48.2982102,38.6851753 L47.9591749,38.5668136 C47.7318768,38.4920588 47.5122261,38.3965388 47.2887518,38.3114015 C47.0669768,38.2208651 46.8490256,38.1220227 46.6302246,38.0252568 C46.1985706,37.8192659 45.7698907,37.6053843 45.3577801,37.362016 C45.2549649,37.3013815 45.1500254,37.243239 45.0480599,37.1809433 L44.7447126,36.9890728 C44.5399319,36.8648968 44.347472,36.7224474 44.1486393,36.5895501 C43.9536302,36.4504231 43.7620201,36.3075585 43.5712596,36.1626173 C43.3864472,36.0110313 43.1935624,35.8685819 43.0151228,35.7086898 L42.7432148,35.4744582 C42.6535701,35.3955504 42.5673243,35.3120742 42.4793791,35.2315052 C42.3013643,35.0711977 42.1335461,34.9000924 41.9644533,34.7310636 C41.794086,34.5628653 41.6364643,34.3826233 41.4716201,34.2090261 C41.3165475,34.0267076 41.1546773,33.849788 41.0051279,33.662901 C40.8560034,33.4760141 40.7030551,33.291619 40.5632774,33.0972567 L40.3499996,32.8086202 L40.1460686,32.5129236 C40.0067157,32.3181459 39.8852068,32.1117397 39.754776,31.9111477 C39.630718,31.7064027 39.5096339,31.4999965 39.3919487,31.2919291 C39.2806364,31.0797086 39.1599772,30.8728871 39.0580117,30.6560983 L38.8999652,30.3338222 L38.7525401,30.0065624 C38.5545571,29.5709083 38.3871637,29.1219644 38.2278426,28.6713593 L38.120354,28.3357935 C38.0850909,28.2228307 38.0477036,28.1160975 38.0158394,27.9927522 L37.8187061,27.2784289 L37.7401077,26.9931148 L37.455454,26.8735072 L37.1355372,26.7393639 C37.0280486,26.695757 36.9218345,26.6496582 36.8190193,26.5981605 L36.5071748,26.448651 L36.2042523,26.2841905 C36.101862,26.2318621 36.0045699,26.171643 35.9072778,26.1114239 C35.8112603,26.0499589 35.7092948,25.995554 35.617101,25.92869 L35.3358462,25.7343277 C35.2457767,25.6649719 35.1565568,25.5943701 35.0686116,25.5225225 C34.9781172,25.453582 34.8982442,25.373013 34.8119984,25.2999194 C34.7699377,25.2621267 34.7261775,25.2259953 34.6828421,25.1894485 C34.6420559,25.1504099 34.5991454,25.1138631 34.5575095,25.0756551 C34.3850179,24.929468 34.2155003,24.7791279 34.0515057,24.6213123 C33.9724825,24.540328 33.8892107,24.4618354 33.8123117,24.377944 C33.7366873,24.2932219 33.6585137,24.2097458 33.5841639,24.1229472 C33.512788,24.0340721 33.4384382,23.9464429 33.3679121,23.8559066 C33.3007848,23.763709 33.2302586,23.6723421 33.1644059,23.578068 C33.0343999,23.3886893 32.909917,23.1939116 32.7969053,22.9916584 C32.6830438,22.7894052 32.5772546,22.5821684 32.4829365,22.3682867 C32.2875026,21.9438458 32.1332798,21.4961478 32.0223923,21.036406 C31.967161,20.8063275 31.9221263,20.5725112 31.8945106,20.3391102 L31.857973,19.9777955 L31.8380047,19.7892474 C31.8316319,19.7261211 31.8256839,19.6638255 31.8099642,19.6015298 C31.7819237,19.4773539 31.7611057,19.3531779 31.7266924,19.2319091 C31.6842068,19.1123014 31.6544668,18.9906173 31.6017846,18.875578 L31.524036,18.7044727 C31.4989694,18.647576 31.4620069,18.595663 31.4314173,18.5416734 C31.3681137,18.4353555 31.2907899,18.3348519 31.2041192,18.2492992 C31.2737956,18.3506335 31.3281772,18.4590279 31.3693883,18.5728212 C31.3889317,18.6301332 31.4135733,18.6845381 31.4284433,18.743096 L31.4734781,18.9175238 C31.5036429,19.032563 31.5112903,19.1542472 31.5312585,19.2701171 C31.5435793,19.3884788 31.5423048,19.508917 31.5482528,19.6264481 C31.5529262,19.685006 31.5482528,19.7448098 31.5435793,19.8041983 L31.5316834,19.9815332 L31.5197874,20.1580375 C31.5134145,20.2253168 31.5100157,20.2892737 31.5074666,20.3528152 C31.4981197,20.607812 31.506192,20.8607323 31.5261602,21.1136526 C31.5665216,21.6186626 31.6553165,22.1224266 31.7938197,22.6166387 C31.8278082,22.739984 31.8660452,22.8624988 31.908106,22.9841829 C31.9471928,23.1066977 31.9947767,23.2263053 32.0406611,23.3471588 C32.1341295,23.58762 32.242043,23.8230975 32.3576039,24.0556679 C32.4166589,24.1715378 32.4808122,24.2845005 32.5424164,24.3995398 C32.6074194,24.5125026 32.6766709,24.6229735 32.7442231,24.7351056 C32.8143244,24.8451613 32.8890991,24.9523098 32.9621743,25.0611195 C33.0365242,25.1690986 33.1180966,25.2716787 33.1962701,25.377166 C33.3589901,25.5827416 33.524684,25.7887325 33.7120456,25.9731276 C33.7592047,26.0192264 33.8046643,26.0669864 33.852673,26.1114239 L34.0026473,26.2393376 C34.1037631,26.3228138 34.2036043,26.4083665 34.3106681,26.4831212 L34.6263362,26.7156916 L34.9496519,26.9362182 C35.0558659,27.0122188 35.1697274,27.0740992 35.2797652,27.1438703 C35.3902278,27.2119802 35.5011153,27.2800901 35.6158264,27.3398939 L35.9574109,27.5251196 L36.3066427,27.6924872 C36.4226285,27.7502145 36.5407385,27.8017122 36.6596982,27.8498875 L36.7310741,27.8797894 L36.8513084,28.3162742 C36.8814732,28.43339 36.9248085,28.5613037 36.9638953,28.6854796 L37.0832799,29.0596688 C37.254497,29.5451594 37.4350609,30.0281583 37.6479139,30.4970368 C37.7010209,30.6141526 37.7515788,30.7325143 37.8063852,30.8487995 L37.9767526,31.1955785 C38.0863655,31.4285642 38.2155218,31.6511673 38.3357561,31.8791693 C38.4619384,32.1030183 38.5923693,32.3252061 38.7257742,32.544902 C38.8659767,32.7608602 38.9972573,32.9826327 39.1468067,33.1923613 L39.3660325,33.5100691 L39.5954549,33.8207167 C39.745854,34.0291994 39.9098485,34.2281301 40.0704442,34.4287221 C40.2314647,34.6297293 40.404806,34.820354 40.5721994,35.0159623 C40.7489396,35.2028492 40.9188821,35.396381 41.1019951,35.5774536 C41.2838336,35.7593569 41.4643975,35.9433367 41.6555828,36.1156879 C41.7503258,36.2024865 41.8429444,36.2917769 41.9398116,36.3769143 L42.2321127,36.629004 C42.4241478,36.8005246 42.6310528,36.9541872 42.8303103,37.1169865 C43.035091,37.2731409 43.2415712,37.4272187 43.4514502,37.5767283 C43.6651529,37.7200082 43.8729076,37.8728402 44.0929831,38.0065682 L44.4192727,38.2125591 C44.5293105,38.2798384 44.6418974,38.3425493 44.7527848,38.4077521 C45.1963348,38.6693937 45.6573038,38.9003029 46.1225214,39.1216601 C46.3578917,39.2263167 46.5924124,39.3322193 46.8307567,39.4298158 C47.0712254,39.5215981 47.3078703,39.6237629 47.5525875,39.7047472 L47.9171141,39.8322456 C48.0390479,39.8737761 48.1631059,39.9090769 48.2858894,39.9477002 C48.4090977,39.984247 48.5314563,40.0253621 48.6559392,40.0585864 L49.0289629,40.1578442 C49.2766541,40.2284459 49.5298685,40.2762059 49.7805336,40.3351791 C50.0320485,40.3895839 50.2861126,40.430699 50.538902,40.4788743 L50.9208478,40.5345251 L51.1120331,40.5619352 L51.2076258,40.5756402 L51.3159641,40.5864381 L52.058188,40.6541327 C52.3088531,40.673652 52.5658912,40.6865265 52.8195304,40.7027233 C53.0740192,40.7185049 53.328933,40.7342865 53.5787485,40.7425925 L54.3324434,40.7729097 L55.1150286,40.7803852 L57.3264054,40.801981 L55.4043557,39.6574025 L51.8389621,37.5347825 Z" id="Fill-34" fill="#FF4F03"></path>
                        <path d="M26.0668849,1.62234451 L25.6420287,1.63355772 C25.5005516,1.64269442 25.357375,1.64477094 25.2171725,1.66678206 C25.0761202,1.68630136 24.9367673,1.71329614 24.7986891,1.7481817 C24.6597611,1.77974482 24.5216828,1.81255386 24.3836045,1.84702411 C24.2778153,1.86986584 24.1733007,1.89852183 24.068786,1.92634722 C24.0700606,1.82044464 24.0679363,1.70499006 24.0615635,1.57167739 C24.0585895,1.45871464 24.0505172,1.34658249 24.0428698,1.23445034 L24.0411704,1.2103627 C24.0360721,1.12356411 24.0271501,1.03759613 24.018653,0.951212847 L24.0063322,0.830774616 C23.9931616,0.716150643 23.9804159,0.607756235 23.9604477,0.484410874 L23.8818493,0.000166121699 L22.9599112,0.374355248 C22.9263476,0.389721505 22.8927839,0.404257154 22.8592203,0.418792803 C22.7619282,0.460738532 22.6701593,0.500607739 22.5817892,0.550444249 C22.4590057,0.617308233 22.3404708,0.689986476 22.2274591,0.768478979 C22.109349,0.846140873 21.9920887,0.92504868 21.8727041,1.00686362 C21.7945305,1.05753073 21.7184813,1.11193559 21.642432,1.16634045 C21.6037701,1.19416583 21.5651082,1.22157591 21.5294203,1.24649417 L21.4402004,1.31335815 C21.3565038,1.37523848 21.2732319,1.43753412 21.1912347,1.50315219 C21.0693009,1.59950278 20.9622372,1.68713197 20.8632457,1.77268465 C20.7744507,1.8461935 20.6890546,1.92385539 20.6032336,2.00110198 L20.5471526,2.05218441 C20.1171981,2.45046118 19.7305789,2.87157968 19.3983413,3.3034961 C19.2479422,3.4991044 19.1056154,3.70218818 18.9730602,3.90817909 C18.9603145,3.90900969 18.9475689,3.90859439 18.9343983,3.909425 C18.8337074,3.91482395 18.7330165,3.91814639 18.6331752,3.93268204 C18.5329092,3.94472586 18.4322182,3.95427786 18.3332267,3.97504307 C18.2342352,3.99373176 18.134394,4.00992863 18.0375268,4.0365081 C17.9402347,4.06101105 17.8420929,4.08468339 17.7477748,4.11624651 C17.6517573,4.14573311 17.5565895,4.17605032 17.4643957,4.2130124 C17.3709273,4.24706735 17.2791584,4.28361412 17.1895137,4.32431394 C17.0985945,4.36252193 17.0102244,4.40488296 16.9235537,4.44890521 C16.8347588,4.49085094 16.7506372,4.53778032 16.6660908,4.5842944 C16.5802699,4.62997787 16.499972,4.68064498 16.4175499,4.72923558 C16.2544051,4.82807799 16.098058,4.93231936 15.9446849,5.03822194 L15.9259912,5.05109637 L15.9051733,5.06853915 L15.1213135,5.71475256 L14.7291712,6.03785926 L14.5477576,6.18695349 C14.5456333,6.1877841 14.531613,6.19650549 14.5188674,6.20356566 C14.4938008,6.21685539 14.469584,6.23014513 14.4364452,6.24509608 C14.3128121,6.30448459 14.1628378,6.36470371 14.0137133,6.42160039 C13.8633142,6.47932768 13.7086665,6.53456314 13.5531691,6.588968 C13.2408998,6.69777771 12.9231073,6.80160377 12.6044651,6.90293801 C12.2849732,7.00427225 11.9642068,7.10269935 11.6425906,7.19904994 L11.1603787,7.34149929 L11.1493325,7.34482173 L11.1344625,7.34814416 L11.0584132,7.36600225 C11.0036068,7.38012259 10.9475258,7.39507354 10.8786991,7.4199918 C10.8102972,7.44532536 10.7355225,7.47481196 10.6441784,7.53253925 C10.5553835,7.58902063 10.4517185,7.67706513 10.3731201,7.79750336 C10.293672,7.91628037 10.249487,8.0562379 10.2363164,8.16795475 C10.222721,8.27801037 10.2269696,8.37685278 10.2380158,8.45285346 C10.2601084,8.61191499 10.2991951,8.72529305 10.3374322,8.83036502 C10.4164555,9.03760184 10.503551,9.20413884 10.5923459,9.36818402 C10.6819906,9.53098328 10.7720601,9.68132342 10.8676528,9.83498599 L10.9364795,9.94462631 L10.970468,9.99820056 L11.0133785,10.0638186 C11.0694595,10.148956 11.1310637,10.2320169 11.1956418,10.3125859 C11.4535296,10.6361079 11.7840677,10.9122852 12.1443458,11.1116312 C12.5054736,11.3130538 12.8903934,11.4401369 13.2685154,11.5186294 C14.0281584,11.6731226 14.7601857,11.6511115 15.4552505,11.6083351 L16.4698072,11.5327498 C16.7943974,11.5119845 17.1134644,11.4970336 17.3645545,11.5319191 C17.6521822,11.5684659 17.909645,11.6432207 18.0719401,11.7503692 C18.1530877,11.804774 18.2146918,11.8625013 18.2652497,11.9376714 C18.3170822,12.0111802 18.3582932,12.1067002 18.3901575,12.2200783 C18.4551605,12.4480803 18.471305,12.7421157 18.4606836,13.0448725 C18.4517616,13.3534436 18.4135246,13.6503861 18.3697644,14.0054712 C18.2864925,14.6965375 18.2418826,15.4096149 18.2631254,16.1210311 C18.2847931,16.8332779 18.3672152,17.5488471 18.5282357,18.2507113 C18.6867071,18.9529907 18.9237769,19.6407346 19.2364711,20.2935928 C19.3928182,20.620022 19.5682838,20.9377297 19.7611686,21.243809 C19.9540533,21.5494729 20.1397155,21.8638582 20.386557,22.1300682 C20.8224595,22.5927172 21.3050962,22.9988847 21.8089757,23.3622759 C23.7582161,25.022247 25.8038989,25.2049809 25.8038989,25.2049809 C25.2061262,24.8731528 24.6308708,24.5180676 24.0853554,24.1285123 C23.5385654,23.7422793 23.0334114,23.309117 22.5664943,22.8531129 C22.1021265,22.3937864 21.6904408,21.8937601 21.3390847,21.3654931 C21.1610699,21.1038514 20.9520406,20.8667127 20.7837975,20.5988415 C20.6151296,20.3322161 20.4626062,20.0556235 20.3266522,19.7715554 C19.7785877,18.6336218 19.5075294,17.3681897 19.4714166,16.0857302 C19.4522981,15.4432545 19.4913848,14.7999483 19.5699833,14.14709 C19.60907,13.8297975 19.6579285,13.4543625 19.6689748,13.085157 C19.6791713,12.7130444 19.6706742,12.3209972 19.5542636,11.8944798 C19.4947837,11.6826746 19.4042893,11.4604868 19.2623873,11.2553265 C19.1243091,11.0493356 18.9343983,10.8703395 18.7325916,10.738688 C18.3226053,10.4770464 17.9036971,10.3873406 17.5234507,10.3341817 C17.1015685,10.2801921 16.7391661,10.3071869 16.3890845,10.3271215 L15.3766521,10.4022916 C14.7227984,10.4450679 14.085514,10.4537893 13.5136575,10.3354276 C12.9409513,10.2191424 12.4642626,9.96705274 12.1371233,9.55465563 C12.0959122,9.5031579 12.0559757,9.45041426 12.0194381,9.39393288 L11.9926721,9.35364837 L11.9586836,9.29965882 L11.8924061,9.19417154 C11.8091342,9.06044357 11.7250127,8.92007074 11.6515126,8.78592747 C11.5975558,8.68750036 11.5469979,8.58824264 11.5074863,8.49895223 L11.9892733,8.35650287 C12.3168374,8.25849107 12.643127,8.15798744 12.9698415,8.05457669 C13.2965559,7.95075062 13.6228455,7.84401743 13.9508346,7.73022407 C14.1148291,7.67291208 14.2792484,7.61352358 14.4449424,7.55039733 C14.6119109,7.48602517 14.77718,7.42123771 14.9594433,7.33485443 C15.0036283,7.31450452 15.0537614,7.28792505 15.1034696,7.26134558 C15.1587009,7.22936715 15.2105333,7.20195707 15.2929554,7.13800021 L15.5002853,6.96855608 L15.8920027,6.64544938 L16.6533451,6.01750936 C16.783776,5.92780364 16.9146317,5.84100505 17.0463372,5.76085133 C17.1155887,5.72056682 17.1835657,5.67695987 17.253667,5.6404131 C17.3229186,5.60220511 17.3921701,5.56316651 17.4626963,5.53035747 C17.5327976,5.49464131 17.6028988,5.46100166 17.6738498,5.43151506 C17.744376,5.39870603 17.8157518,5.37046534 17.8875525,5.34471648 C17.9589284,5.31564518 18.0311539,5.29321875 18.1038044,5.27120762 C18.1756051,5.24628937 18.2486803,5.22926189 18.3217556,5.21098851 C18.394406,5.1902233 18.4687559,5.17942539 18.542256,5.16530504 C18.6153313,5.14910818 18.690106,5.14329392 18.7644558,5.13374192 C18.8383808,5.1221134 18.9135804,5.12086749 18.9883551,5.11671444 C19.0631298,5.11048488 19.1387542,5.1125614 19.2139537,5.11380731 L19.3269655,5.11546853 L19.4404021,5.12543583 C19.5160265,5.13125009 19.5916509,5.13623374 19.6672753,5.14993878 C19.7433246,5.16322852 19.818949,5.16862747 19.8949983,5.18731617 L20.1218715,5.23632207 L20.4651554,5.31024622 L20.7158205,5.05608002 L20.7638293,5.00748943 L20.8254335,4.94810092 C20.8683439,4.90781641 20.912529,4.8679472 20.9584135,4.82807799 C21.0497576,4.74833958 21.1457751,4.67109299 21.2439169,4.59550761 C21.4406253,4.44475217 21.6466806,4.30230282 21.8603833,4.16982076 C22.2873638,3.90444135 22.7415351,3.67726992 23.2110013,3.48539936 C23.3291113,3.43888529 23.4463716,3.39070999 23.5666059,3.34917957 C23.6859906,3.30515732 23.8062249,3.26487281 23.9277338,3.22624951 C24.0483929,3.1863803 24.1711764,3.15274066 24.293535,3.11702449 C24.4171681,3.08546137 24.5391019,3.0493299 24.6640096,3.02233513 C24.7880676,2.99326383 24.9129754,2.96709966 25.0395825,2.94758036 C25.16534,2.92556924 25.2919472,2.90978768 25.4168549,2.88362351 C25.4504185,2.87656334 25.4835573,2.86825725 25.5166961,2.86078177 C25.508199,2.93802836 25.499277,3.01485965 25.487381,3.09086033 C25.4729359,3.20091595 25.4563665,3.31055627 25.4351237,3.41812007 L25.4058086,3.58091934 L25.369271,3.73998087 L25.3323085,3.899873 L25.2915223,4.06225696 C25.236291,4.26409482 25.1602417,4.4667633 25.0671982,4.65946447 C24.9728801,4.85216564 24.8619926,5.03780664 24.7281629,5.20517425 C24.6627351,5.29072692 24.5892349,5.36838882 24.5131857,5.4448048 C24.4345873,5.51748304 24.3534397,5.59016129 24.2646448,5.65245692 C24.1775492,5.71765969 24.0828063,5.77206455 23.9846645,5.82190106 C23.8860978,5.87173756 23.7815832,5.91077616 23.6745194,5.94524642 C23.6201378,5.95895146 23.5657562,5.97431771 23.5101001,5.98719215 L23.341857,6.01667875 C23.2849263,6.02249301 23.2275707,6.02996848 23.1697902,6.03453683 L22.9951743,6.04076639 L23.1676659,6.07482134 C23.2258712,6.08395803 23.2845014,6.08977229 23.3435564,6.09724777 C23.4026114,6.10264673 23.4620913,6.10306203 23.5224209,6.10555386 C23.5819008,6.10513855 23.6418055,6.10140081 23.7025599,6.09932429 C23.8227943,6.08811108 23.9438783,6.0706683 24.0632629,6.03993578 C24.1822226,6.00920327 24.3011824,5.97141058 24.414619,5.91991286 C24.8760129,5.72139743 25.2596581,5.3667276 25.5634303,4.96928144 C25.715104,4.76827418 25.8489337,4.5552231 25.9640697,4.32555985 C25.9785148,4.29648856 25.9925351,4.26741726 26.0061305,4.23710005 L26.0265236,4.19058597 L26.037145,4.1640065 L26.0422433,4.15113207 L26.0435179,4.14864024 C26.0494658,4.13078216 26.0354456,4.17148198 26.037145,4.16691363 L26.0379947,4.16566772 L26.040119,4.16026876 L26.114044,3.99040933 L26.1875441,3.81971928 L26.2525471,3.64778332 C26.2975819,3.53315935 26.3375184,3.41770477 26.3749057,3.30141958 C26.4148422,3.1855497 26.4492556,3.06926451 26.4836689,2.95214871 C26.5197817,2.83544822 26.5490968,2.71750181 26.580961,2.5991401 C26.6111258,2.47870187 26.6395912,2.36532381 26.6663571,2.23284175 L26.7929643,1.60282521 L26.0668849,1.62234451 Z M23.1553451,2.21290715 C23.0206657,2.25983653 22.8881105,2.31382608 22.7551305,2.36615442 C22.2261845,2.58294323 21.7116836,2.83960126 21.2222492,3.14360397 C20.9771071,3.29602063 20.7387628,3.4600658 20.5072161,3.63781602 C20.3916552,3.72669113 20.2777938,3.81847337 20.1656317,3.91606987 C20.1477877,3.93143612 20.1303686,3.94763299 20.1129495,3.96341455 C20.1303686,3.94015751 20.146938,3.91606987 20.164782,3.89281283 C20.4638808,3.50408805 20.8131126,3.12366936 21.2039804,2.76152406 L21.2638851,2.70753451 C21.3390847,2.63942461 21.4142842,2.57089941 21.4907583,2.50735786 C21.5791284,2.43177249 21.6738714,2.35369529 21.7885826,2.26357427 C21.861233,2.20501637 21.9364325,2.1489503 22.0112072,2.09329953 L22.0995773,2.02726615 C22.1356901,2.0023479 22.1709532,1.97701434 22.2066411,1.95126547 C22.2758927,1.90184427 22.3451442,1.85242306 22.4152455,1.8071549 C22.541003,1.72326344 22.647217,1.65764537 22.7466334,1.6019946 C22.7878444,1.57749165 22.8294804,1.55423461 22.8715411,1.53056227 C22.9395181,1.49193898 23.00792,1.45331568 23.0737727,1.41136995 L23.158744,1.35571918 L23.2997962,1.26435225 L23.3414321,1.42756682 C23.3609755,1.5039828 23.3800941,1.58122939 23.3953889,1.65515355 C23.4238542,1.77642239 23.4455219,1.8852321 23.4625162,1.98573573 L23.4833341,2.1003597 C23.3732964,2.13607586 23.2641083,2.17303794 23.1553451,2.21290715 L23.1553451,2.21290715 Z" id="Fill-36" fill="#FF4F03"></path>
                        <path d="M32.8129223,14.6839538 C32.7181794,14.6810467 32.6242862,14.6702487 32.5295432,14.666511 C32.4343754,14.6648498 32.3396325,14.6582049 32.2444647,14.6615274 C32.0541291,14.662358 31.8629438,14.6752324 31.6726082,14.6984894 C31.4346887,14.727976 31.1980438,14.7773972 30.9656474,14.8434306 C30.9613988,14.7994084 30.9563006,14.7553861 30.9507774,14.7117792 L30.949078,14.6997354 C30.9439797,14.6557131 30.937182,14.6121062 30.9303843,14.5684992 L30.9206126,14.5074495 C30.9104161,14.4493069 30.9010692,14.394902 30.887049,14.3326064 L30.8330922,14.0884075 L30.3746724,14.3060269 C30.358103,14.314333 30.3415336,14.3226391 30.3245393,14.3313605 C30.2765306,14.3554481 30.2310709,14.3787052 30.1873107,14.4065306 C30.1269812,14.4439079 30.0687759,14.4846078 30.0135445,14.5277994 C29.9557641,14.5705757 29.8984085,14.6141827 29.8402032,14.6594508 C29.8015413,14.6872762 29.7645788,14.7171781 29.7276163,14.74708 C29.7084978,14.7624463 29.6898041,14.7778125 29.672385,14.7911023 L29.6286248,14.8280644 C29.5882634,14.861704 29.5474772,14.895759 29.5079656,14.9318904 C29.4484857,14.9842188 29.3966533,15.0319787 29.3486445,15.0784928 C29.305734,15.118362 29.264523,15.1603078 29.2233119,15.2022535 L29.1961211,15.2296636 C28.9887913,15.4452065 28.8044037,15.6707167 28.6480566,15.9003799 C28.6017472,15.9680745 28.5575622,16.0374303 28.5150766,16.1076167 C28.4985072,16.1080321 28.4815129,16.1063708 28.4649435,16.1072014 C28.4271313,16.1080321 28.3888943,16.1101086 28.3506572,16.1130157 L28.2924519,16.1179994 L28.2465674,16.1233983 C27.884165,16.1404258 27.5574506,16.2255632 27.251979,16.3393565 C26.9371605,16.4581335 26.6418854,16.6072278 26.3610554,16.7799943 C26.0793757,16.9544221 25.8172394,17.1462927 25.56445,17.3863385 L25.4671579,17.4801973 L25.3885595,17.5640887 L25.3120853,17.6459037 C25.2950911,17.6658383 25.2734234,17.684527 25.2534552,17.7040463 C25.1697585,17.7808776 25.0660936,17.8535558 24.9543564,17.9200045 C24.7296074,18.0541478 24.4691706,18.1637881 24.2006614,18.2580621 C23.9308777,18.3519209 23.6504726,18.4304134 23.365394,18.4985233 C23.2226423,18.5325782 23.0790409,18.5637261 22.9341649,18.5932127 L22.8254017,18.6148085 L22.7693207,18.6260217 L22.6792512,18.6472022 C22.5577423,18.6820878 22.4030946,18.750613 22.2781869,18.8963848 C22.2165827,18.9686477 22.1719728,19.0546157 22.144782,19.1380918 C22.1171664,19.2223986 22.1090941,19.2992299 22.1061201,19.3706622 C22.1044207,19.5102044 22.1286375,19.6223366 22.1562532,19.7203484 C22.212759,19.916372 22.289658,20.0716958 22.360609,20.2145604 L22.4621497,20.4184748 C22.5029359,20.501951 22.5517943,20.5845965 22.6057511,20.6639196 C22.7136645,20.8225659 22.8466446,20.9691683 22.9936448,21.0871147 C23.2872205,21.3267452 23.6130852,21.4737629 23.930028,21.5834032 C24.2507944,21.690967 24.5622141,21.7594922 24.8855297,21.8134818 C25.0524982,21.843799 25.1854782,21.8579194 25.3494727,21.8815917 C25.4956232,21.8998651 25.6396495,21.9222915 25.7828261,21.9463792 C25.9260026,21.9692209 26.0662052,22.0011993 26.202584,22.0414838 C26.338538,22.0821836 26.4791654,22.0946428 26.6172437,22.119561 C26.8925506,22.1681516 27.1593603,22.2424911 27.3981295,22.3637599 C27.6368987,22.4841982 27.8552748,22.6503199 28.0124716,22.8841361 C28.1726424,23.1162912 28.2720588,23.4032665 28.3260155,23.7080998 C28.3782729,23.4065889 28.380822,23.0780832 28.2805559,22.758299 C28.1815644,22.4393453 27.9797577,22.1378344 27.7214451,21.9090018 C27.4639822,21.677262 27.1665828,21.5044954 26.8649349,21.3645379 C26.7136861,21.2951821 26.5611627,21.2258263 26.4009919,21.1980009 L25.9264275,21.1128635 C25.7696555,21.0862841 25.6133084,21.0621964 25.4573862,21.0426771 C25.3201576,21.0227425 25.1510648,21.0032232 25.0185097,20.978305 C24.7423531,20.9326215 24.4576994,20.8690799 24.201936,20.7822814 C23.9453228,20.6946522 23.7099524,20.5808588 23.5319377,20.4346717 C23.4410184,20.3624088 23.368368,20.2801785 23.3050644,20.187981 C23.2736251,20.1418822 23.2447349,20.0932916 23.2188186,20.0401327 L23.1168531,19.835803 C23.052275,19.7070587 22.9974685,19.5866204 22.9698529,19.4898545 C22.9656043,19.4757342 22.9626303,19.4624445 22.9600812,19.4504006 L22.987272,19.4450017 L23.102408,19.4221599 C23.2553563,19.3914274 23.4087294,19.3577878 23.5616776,19.321241 C23.8684238,19.2477322 24.1747452,19.1625948 24.4793671,19.0562769 C24.783989,18.9491284 25.088611,18.8237065 25.38686,18.6472022 C25.5359846,18.5579118 25.6838346,18.4565776 25.8248868,18.3278333 C25.859725,18.2946089 25.8945633,18.2626305 25.9281269,18.2256684 L26.007575,18.1409463 L26.0848989,18.0583008 L26.1520261,17.9947592 C26.3406623,17.8153478 26.5705095,17.6438272 26.8058799,17.4993013 C27.0429497,17.3535295 27.29319,17.2276923 27.5476789,17.131757 C27.8013181,17.0358217 28.0626047,16.9756026 28.2954259,16.9672965 L28.3081716,16.9668812 L28.3502323,16.9627282 L28.4143856,16.9564986 L28.4904349,16.9523456 C28.5414177,16.9506844 28.5919755,16.9519303 28.640834,16.9548374 C28.7394007,16.9606517 28.8303199,16.9780944 28.9016958,17.0021821 L29.2016443,17.1035163 L29.3902804,16.8418747 C29.3992024,16.8298308 29.4268181,16.7936994 29.4484857,16.7679505 C29.471428,16.7397098 29.4960696,16.7110538 29.521561,16.6832284 C29.5725438,16.6267471 29.6265005,16.5715116 29.6825815,16.517522 C29.7947436,16.4103735 29.9154028,16.3102852 30.0420099,16.2176724 C30.2956491,16.0336926 30.5713808,15.88003 30.8641067,15.7674826 C31.155983,15.6524433 31.4631541,15.5768579 31.776698,15.5378193 C31.9334699,15.5187153 32.0919413,15.5079174 32.2516872,15.5075021 C32.2610341,15.5070868 32.2703809,15.5075021 32.2801526,15.5075021 C32.2708058,15.5955466 32.2593347,15.6831758 32.2444647,15.770805 C32.2028288,16.0141733 32.1407998,16.2546345 32.0477562,16.4813906 C31.9589613,16.7106385 31.8361778,16.9261814 31.6683596,17.1093306 C31.6245994,17.1529375 31.5821138,17.1998669 31.5328305,17.2393208 C31.4860963,17.2820972 31.4334141,17.3169827 31.3803071,17.3543601 C31.3250758,17.3867538 31.2694196,17.4216394 31.2086652,17.4473882 C31.150035,17.4785361 31.0867314,17.4976401 31.023003,17.522143 C31.0897054,17.5208971 31.1593818,17.5254654 31.2273588,17.5154981 C31.2966104,17.5105145 31.3641625,17.4947329 31.433839,17.4806126 C31.5009663,17.4610933 31.5706427,17.4424046 31.6364954,17.4141639 C31.7044724,17.3892457 31.767776,17.3551907 31.8319293,17.3207205 C32.0834442,17.175364 32.3035197,16.970619 32.4849333,16.7422016 C32.6654972,16.5117078 32.8116478,16.2587875 32.9361307,15.9967305 C32.9981597,15.8654944 33.0542407,15.7317664 33.1052234,15.5951313 C33.1311397,15.5270214 33.1523825,15.456835 33.1651282,15.3849874 C33.1791484,15.3106479 33.1842467,15.2446145 33.1944432,15.15657 L33.2471254,14.6972435 L32.8129223,14.6839538 Z" id="Fill-38" fill="#FF4F03"></path>
                        <path d="M18.9159171,6.58448271 C18.9150674,6.58240619 18.9146425,6.58032967 18.9133679,6.57783785 C18.8832031,6.48439439 18.7897348,6.46653631 18.4031156,6.52052586 L18.4043901,6.52135647 C17.603961,6.60690914 17.2993391,7.12396293 17.2993391,7.12396293 C17.2853188,7.15303423 17.2755471,7.1995483 17.3630675,7.22280534 C17.6124581,7.29049993 18.3228177,7.43917885 18.7013647,7.06955807 C18.7944082,6.99480331 18.8322204,6.89886803 18.8696077,6.82079083 C18.8696077,6.82079083 18.9439576,6.68706286 18.9159171,6.58448271" id="Fill-40" fill="#FF4F03"></path>
                        <path d="M28.5925703,18.1136609 C28.5921455,18.1119996 28.5917206,18.1103384 28.5908709,18.1086772 C28.5692033,18.0384908 28.499102,18.0235398 28.2059512,18.0584254 L28.2068009,18.0588407 C27.6001062,18.111169 27.3626115,18.4924183 27.3626115,18.4924183 C27.3515653,18.5135988 27.343493,18.5484844 27.4093457,18.5671731 C27.5967073,18.6211626 28.1316013,18.7424315 28.4230527,18.4724837 C28.4948534,18.4180789 28.5245933,18.3470618 28.5539084,18.2889192 L28.5539084,18.2893345 C28.5539084,18.2893345 28.6121137,18.1904921 28.5925703,18.1136609" id="Fill-42" fill="#FF4F03"></path>
                    </g>
                </g>
            </g>
        </g>
    </g>
</svg>